<svg xmlns="http://www.w3.org/2000/svg" width="130" height="130" viewBox="0 0 130 130">
    <g fill="none" fill-rule="evenodd">
        <circle cx="65" cy="65" r="65" fill="#FF5A54"/>
        <g fill="#F7F8FA">
            <path d="M54 94H43.6V47.404L32 57.67V46.264L43.6 36H54zM99 53.078c0 1.863-.306 3.89-.917 6.08-.61 2.192-1.944 5.37-4 9.533L81.5 94H69.75l12.333-24.159a8.972 8.972 0 0 1-2.166.575c-.778.11-1.528.165-2.25.165-4.223 0-7.834-1.534-10.834-4.602C63.611 62.692 62 58.447 62 53.242c0-5.642 1.736-10.093 5.208-13.353C70.681 36.63 75.111 35 80.5 35s9.82 1.602 13.292 4.807C97.264 43.012 99 47.435 99 53.078zm-10.888.044c0-2.679-.707-4.77-2.12-6.273-1.415-1.503-3.258-2.255-5.53-2.255-2.274 0-4.117.752-5.53 2.255-1.415 1.503-2.121 3.594-2.121 6.273 0 2.624.693 4.701 2.079 6.232 1.385 1.53 3.243 2.296 5.571 2.296 2.273 0 4.116-.752 5.53-2.255 1.414-1.503 2.12-3.594 2.12-6.273z"/>
        </g>
    </g>
</svg>
