<svg xmlns="http://www.w3.org/2000/svg" width="26" height="26" viewBox="0 0 26 26">
    <g fill="none" fill-rule="evenodd">
        <circle cx="13" cy="13" r="13" fill="#00C73C"/>
        <g fill="#FFF">
            <path d="M9.397 9.728v1.13c.458.069.55.51.55 1.019v2.793h1.236v-3.024c0-1.211-.733-1.918-1.786-1.918M6.957 13.75c-.494 0-.781-.322-.781-.74 0-.408.287-.748.781-.748.494 0 .781.34.781.747 0 .42-.287.74-.78.74m.33-2.503c-.394 0-.822.142-1.051.43V9.854H5v4.817h1.237v-.373c.222.333.631.469 1.028.469 1.02 0 1.733-.813 1.733-1.764 0-.947-.698-1.756-1.71-1.756M14.043 13.75c-.493 0-.78-.322-.78-.74 0-.408.287-.748.78-.748.495 0 .782.34.782.747 0 .42-.287.74-.782.74m0-2.503c-1.1 0-2.06.637-2.06 1.763 0 1.125.965 1.758 2.06 1.758 1.101 0 2.063-.64 2.063-1.758 0-1.126-.962-1.763-2.063-1.763M18.756 13.722c-.495 0-.782-.32-.782-.74 0-.405.287-.746.782-.746.493 0 .78.341.78.746 0 .42-.287.74-.78.74zm.762-2.377v.34h-.035c-.24-.298-.608-.447-1.008-.447-1.047 0-1.754.826-1.754 1.792 0 .95.697 1.687 1.699 1.687.453 0 .778-.146 1.098-.448v.154c0 .56-.22.93-.873.93h-.226v1.065h.24c1.306 0 2.05-.682 2.05-2.083v-2.99h-1.19z"/>
        </g>
    </g>
</svg>
