<svg xmlns="http://www.w3.org/2000/svg" width="40" height="58" viewBox="0 0 40 58">
    <path fill="#D5DBE0" fill-rule="evenodd" d="M20.848 35.297l-1.279-.555v.388l1.179.511v.81l-1.179-.512v.381l1.318.572v.857l-2.54-1.101v-3.293l2.501 1.084v.858zm-5.36-3.182l.608 2.25.034.014.608-1.722 1.345.583-1.388 2.692-1.164-.505-1.388-3.895 1.345.583zm-7.363-1.561v1.661l-1.233-.534v-3.294l1.238.537 1.144 2.158v-1.661l1.234.535v3.292l-1.238-.536-1.145-2.158zm4.956 2.619l-.291-1.212-.033-.014-.291.96.615.266zm.396-1.93l1.297 3.856-1.371-.595-.12-.482-1.019-.442-.12.378-1.372-.595 1.298-2.73 1.407.61zm-2.011-18.63v-2.238c0-.332.217-.51.31-.571a.704.704 0 0 1 .378-.114c.083 0 .175.016.273.058l6.966 2.994a1.936 1.936 0 0 1 1.175 1.778v4.916l-9.102-3.816v-3.007zm11.341 23.505l-.259-.113v.649l.265.114a.715.715 0 0 0 .259.065.206.206 0 0 0 .065-.01c.072-.027.106-.089.106-.186a.457.457 0 0 0-.101-.286.915.915 0 0 0-.335-.233zm.516 2.688l-.736-1.348v1.028l-1.233-.535v-3.292l1.541.668c.892.387 1.569.953 1.569 1.801 0 .44-.213.642-.557.642-.052 0-.107-.005-.164-.014l.998 1.665-1.418-.615zm14.675-21.097l-.563-.134-4.173 1.904-2.193 4.36-8.277-3.47V14.52c0-1.656-.987-3.15-2.516-3.807l-6.933-2.979-.583-.251a2.525 2.525 0 0 0-2.383.205 2.494 2.494 0 0 0-1.135 2.093v4.907l-7.055-3.06-.2.129v31.341l29.006 11.868V41.038h.995v12.535l1.862-2.275.294-.356.432-.165 3.422-1.426V17.71zM28.905 6.93c0-.841-.502-1.601-1.28-1.936l-4.386-1.885-2.47-1.061a.897.897 0 0 0-.352-.074.883.883 0 0 0-.481.146.86.86 0 0 0-.398.732V7.729l9.367 4.081V6.93zm6.046 46.384l-3.495 4.688L0 44.822V10.37l6.903-2.705 1.796-4.41 9.028 3.684v-4.09c0-.134.013-.266.032-.396V2.25c0-.76.382-1.462 1.02-1.879A2.261 2.261 0 0 1 20.92.186l.196.084c.124.034.247.074.367.125l6.967 2.994a3.924 3.924 0 0 1 2.382 3.604v5.656L40 16.643v34.299l-5.049 2.372z"/>
</svg>
