<svg xmlns="http://www.w3.org/2000/svg" width="126" height="134" viewBox="0 0 126 134">
    <g fill="none" fill-rule="evenodd">
        <path fill="#FF8427" d="M63 0L0 17.651s2.761 50.965 11.044 72.345C19.326 111.376 39.156 124.801 63 134c23.844-9.199 43.674-22.623 51.956-44.004C123.239 68.616 126 17.651 126 17.651L63 0z"/>
        <path fill="#FFF" d="M80 36c0 9.389-7.611 17-17 17s-17-7.611-17-17 7.611-17 17-17 17 7.611 17 17M63 96l32-5.07C94.72 73.801 80.506 60 63 60S31.28 73.802 31 90.93L63 96z"/>
        <path fill="#000" d="M114.956 89.996C123.239 68.616 126 17.651 126 17.651L63 0v134c23.844-9.199 43.673-22.623 51.956-44.004" opacity=".04" style="mix-blend-mode:multiply"/>
    </g>
</svg>
