<svg xmlns="http://www.w3.org/2000/svg" width="90" height="158" viewBox="0 0 90 158">
    <g fill="#D5DBE0" fill-rule="evenodd">
        <path d="M42.043 78.994l-2.214-.964v.674l2.04.887v1.407l-2.04-.888v.661l2.282.994v1.49l-4.396-1.914V75.62l4.328 1.884v1.49zm-9.276-5.528l1.051 3.908.06.025 1.052-2.99 2.328 1.012-2.402 4.676-2.016-.877-2.402-6.767 2.329 1.013zm-12.744-2.713v2.887l-2.134-.928V66.99l2.142.932 1.981 3.749v-2.886l2.135.93v5.72l-2.142-.932-1.982-3.75zm8.577 4.55l-.503-2.104-.058-.025-.503 1.667 1.064.463zm.685-3.353l2.246 6.7-2.374-1.034-.207-.837-1.764-.768-.207.657-2.375-1.034 2.246-4.744 2.435 1.06zm-3.218-43.38v-5.054c0-.751.488-1.153.697-1.29.144-.094.453-.257.852-.257.187 0 .394.036.613.13l16.137 6.76a4.369 4.369 0 0 1 2.644 4.014v11.105L26.067 35.36V28.57zm19.367 51.85l-.449-.196v1.127l.458.199c.148.065.32.112.449.112a.34.34 0 0 0 .113-.017c.125-.046.183-.155.183-.323a.79.79 0 0 0-.174-.496c-.119-.154-.364-.313-.58-.406zm.893 4.67l-1.275-2.34v1.785l-2.134-.929v-5.721s1.917.835 2.667 1.16c1.545.673 2.717 1.657 2.717 3.13 0 .764-.37 1.115-.965 1.115-.089 0-.184-.008-.283-.023l1.727 2.891-2.454-1.068zm39.739-44.938l-1.05-.459-10.177 4.3-4.935 9.847-17.89-7.756v-13.21a9.361 9.361 0 0 0-5.662-8.6L30.29 17.55l-1.312-.567a5.663 5.663 0 0 0-5.361.464 5.637 5.637 0 0 0-2.555 4.726v11.082L4.378 26.263l-.446.288v72.042l65.05 27.12.02-33.735h1.996v32.002l5.164-6.455.66-.804.972-.373 8.272-3.989V40.152zm-21.031-24.5a4.76 4.76 0 0 0-2.879-4.373l-9.868-4.257-5.559-2.397a1.964 1.964 0 0 0-1.874.164 1.946 1.946 0 0 0-.895 1.652v11.014l21.075 9.216V15.652zM78.639 120.41L70.775 131 0 101.23V23.42l15.532-6.11 4.04-9.96 20.313 8.322v-9.24c0-.302.029-.599.073-.894v-.457c0-1.716.858-3.302 2.295-4.244A5.083 5.083 0 0 1 47.069.42l.441.19c.279.076.557.166.827.282l15.674 6.763c3.256 1.404 4.99 4.517 4.99 8.057v12.774l20.997 9.102v77.465l-11.359 5.357zM2.61 148.247v9.385H0v-13.228h2.935l5.321 9.224v-9.224h2.609v13.228h-2.8l-5.455-9.385zm19.451-.689c-.651-.81-1.532-1.215-2.641-1.215-1.11 0-1.995.404-2.655 1.211-.661.808-.99 1.956-.99 3.447 0 1.488.329 2.639.99 3.445.66.808 1.545 1.212 2.655 1.212 1.109 0 1.99-.404 2.641-1.212.651-.806.978-1.957.978-3.445 0-1.484-.327-2.631-.978-3.443zM19.42 158c-1.915 0-3.38-.514-4.392-1.544-1.357-1.261-2.036-3.081-2.036-5.455 0-2.425.679-4.243 2.036-5.458C16.04 144.515 17.505 144 19.42 144c1.915 0 3.379.515 4.391 1.543 1.352 1.215 2.028 3.033 2.028 5.458 0 2.374-.676 4.194-2.028 5.455-1.012 1.03-2.476 1.544-4.391 1.544zm13.501-.368h2.781v-13.228h-2.781v13.228zm15.711-8.947c0-.257.002-.617.008-1.082.006-.463.01-.821.01-1.073l-2.539 11.102h-2.722l-2.522-11.102c0 .252.004.61.009 1.073.006.465.009.825.009 1.082v8.947h-2.61v-13.228h4.075l2.44 10.402 2.422-10.402h4.029v13.228h-2.609v-8.947zm10.586-1.256l-1.738 5.205h3.432l-1.694-5.205zm2.435 7.484h-4.935l-.909 2.719h-2.928l4.783-13.228h3.169l4.741 13.228h-3.037l-.884-2.719zm14.299 1.067c-.54.626-1.024 1.068-1.455 1.322-.739.448-1.648.671-2.726.671-1.777 0-3.231-.606-4.365-1.821-1.182-1.219-1.772-2.887-1.772-5.005 0-2.14.596-3.856 1.79-5.147 1.194-1.292 2.773-1.936 4.737-1.936 1.703 0 3.072.426 4.106 1.277 1.032.853 1.625 1.917 1.776 3.191h-2.754c-.213-.903-.731-1.536-1.556-1.893a3.845 3.845 0 0 0-1.535-.296c-1.08 0-1.966.402-2.659 1.204-.695.803-1.042 2.011-1.042 3.624 0 1.624.376 2.773 1.128 3.447.751.674 1.606 1.013 2.563 1.013.94 0 1.71-.266 2.309-.798.601-.533.97-1.23 1.11-2.092h-3.101v-2.207h5.583v7.099h-1.854l-.283-1.653zM90 155.254v2.378H79.844v-13.228h9.828v2.342H82.58v2.809h6.511v2.297H82.58v3.402H90z"/>
    </g>
</svg>
