<?xml version="1.0" encoding="utf-8"?><svg width="215" height="189" viewBox="0 0 215 189" xmlns="http://www.w3.org/2000/svg" xmlns:xlink="http://www.w3.org/1999/xlink"><svg width="18" height="14" viewBox="-4 -4 18 14" id="arrow_down_10x6_gray" x="140" y="128" xmlns="http://www.w3.org/2000/svg"><path d="M.5.5l4.469 4.523L9.492.5" stroke="#999" fill="none" fill-rule="evenodd"/></svg><svg width="19" height="19" viewBox="-4 -4 19 19" id="arrow_down_11x11_white" y="170" xmlns="http://www.w3.org/2000/svg"><defs><filter id="aba" width="105.9%" height="124.3%" x="-3%" y="-6.1%" filterUnits="objectBoundingBox"><feOffset dy="2" in="SourceAlpha" result="shadowOffsetOuter1"/><feGaussianBlur in="shadowOffsetOuter1" result="shadowBlurOuter1" stdDeviation="1"/><feComposite in="shadowBlurOuter1" in2="SourceAlpha" operator="out" result="shadowBlurOuter1"/><feColorMatrix in="shadowBlurOuter1" values="0 0 0 0 0 0 0 0 0 0 0 0 0 0 0 0 0 0 0.06 0"/></filter><path id="abb" d="M72.364 27L67.5 32.864 62.636 27H0V0h135v27z"/></defs><g fill="none" fill-rule="evenodd" transform="translate(-62 -26)"><use fill="#000" filter="url(#aba)" xlink:href="#abb"/><path fill="#FFF" stroke="#000" stroke-linejoin="square" stroke-opacity=".1" d="M134.5 26.5V.5H.5v26h62.37l4.63 5.58 4.63-5.58h62.37z"/></g></svg><svg width="19" height="14" viewBox="-4 -4 19 14" id="arrow_down_11x6_black" x="22" y="154" xmlns="http://www.w3.org/2000/svg"><path fill-rule="evenodd" d="M0 .588L.579 0 5.5 4.997 10.421 0 11 .588l-5.21 5.29a.404.404 0 01-.58 0L0 .588z"/></svg><svg width="19" height="14" viewBox="-4 -4 19 14" id="arrow_down_11x6_white" x="41" y="154" xmlns="http://www.w3.org/2000/svg"><path fill="#FFF" fill-rule="evenodd" d="M11 0L5.5 6 0 0z"/></svg><svg width="19" height="15" viewBox="-4 -4 19 15" id="arrow_down_11x7_gray" x="19" y="170" xmlns="http://www.w3.org/2000/svg"><path fill="#979797" d="M10.116.18a.5.5 0 11.768.64l-5 6a.5.5 0 01-.768 0l-5-6A.5.5 0 01.884.18L5.5 5.719l4.616-5.54z"/></svg><svg width="22" height="16" viewBox="-4 -4 22 16" id="arrow_down_14x8_gray" x="118" y="128" xmlns="http://www.w3.org/2000/svg"><path fill="#ACB2BC" fill-rule="evenodd" d="M13 2v1h-1v1h-1v1h-1v1H9v1H8v1H6V7H5V6H4V5H3V4H2V3H1V2H0V0h1v1h1v1h1v1h1v1h1v1h1v1h2V5h1V4h1V3h1V2h1V1h1V0h1v2h-1z"/></svg><svg width="23" height="16" viewBox="-4 -4 23 16" id="arrow_down_15x8_black" x="72" y="128" xmlns="http://www.w3.org/2000/svg"><path fill-rule="evenodd" d="M7.5 8a.502.502 0 01-.354-.146l-7-7A.502.502 0 01.854.146L7.5 6.793 14.146.146a.502.502 0 01.708.708l-7 7A.502.502 0 017.5 8"/></svg><svg width="27" height="18" viewBox="-4 -4 27 18" id="arrow_down_19x10_black" x="89" y="90" xmlns="http://www.w3.org/2000/svg"><path fill="none" stroke="#000" d="M18.5.5l-9 9-9-9"/></svg><svg width="13" height="11" viewBox="-4 -4 13 11" id="arrow_down_5x3_gray" x="202" y="92" xmlns="http://www.w3.org/2000/svg"><path opacity=".2" fill-rule="evenodd" d="M0 0h1v1H0V0zm1 0h1v1H1V0zm1 0h1v1H2V0zM1 1h1v1H1V1zm1 0h1v1H2V1zm0 1h1v1H2V2zm1-1h1v1H3V1zm0-1h1v1H3V0zm1 0h1v1H4V0z"/></svg><svg width="13" height="11" viewBox="-4 -4 13 11" id="arrow_down_5x3_white" x="202" y="103" xmlns="http://www.w3.org/2000/svg"><path fill="#FFF" fill-rule="evenodd" d="M0 0h1v1H0V0zm1 0h1v1H1V0zm1 0h1v1H2V0zM1 1h1v1H1V1zm1 0h1v1H2V1zm0 1h1v1H2V2zm1-1h1v1H3V1zm0-1h1v1H3V0zm1 0h1v1H4V0z"/></svg><svg width="15" height="12" viewBox="-4 -4 15 12" id="arrow_down_7x4_black" x="130" y="154" xmlns="http://www.w3.org/2000/svg"><path d="M6.143 0L7 1 3.5 4 0 1l.857-1L3.5 2.265z"/></svg><svg width="15" height="12" viewBox="-4 -4 15 12" id="arrow_down_7x4_gray" x="145" y="154" xmlns="http://www.w3.org/2000/svg"><path opacity=".3" d="M6.143 0L7 1 3.5 4 0 1l.857-1L3.5 2.265z"/></svg><svg width="15" height="12" viewBox="-4 -4 15 12" id="arrow_down_7x4_white" x="74" y="170" xmlns="http://www.w3.org/2000/svg"><path fill="#fff" d="M6.143 0L7 1 3.5 4 0 1l.857-1L3.5 2.265z"/></svg><svg width="17" height="13" viewBox="-4 -4 17 13" id="arrow_down_9x5_gray" x="79" y="154" xmlns="http://www.w3.org/2000/svg"><path fill="#555" fill-rule="evenodd" d="M0 0h9L4.5 5z"/></svg><svg width="17" height="14" viewBox="-4 -4 17 14" id="arrow_down_mask_9x6_white" x="57" y="170" xmlns="http://www.w3.org/2000/svg"><path fill="#FFF" d="M9 0v6H0V0h9zM7.143 1L4.5 3.265 1.857 1 1 2l3.5 3L8 2l-.857-1z"/></svg><svg width="18" height="29" viewBox="-4 -4 18 29" id="arrow_left_10x21_gray" x="25" y="90" xmlns="http://www.w3.org/2000/svg"><path fill="#555" fill-rule="evenodd" d="M9.412 21l.589-.579L1.003 10.5 10.001.579 9.412 0 .122 10.21a.404.404 0 000 .58L9.412 21z"/></svg><svg width="19" height="26" viewBox="-4 -4 19 26" id="arrow_left_11x18_black" x="131" y="72" xmlns="http://www.w3.org/2000/svg"><path fill="none" stroke="#333" stroke-width="2" d="M10 17L2 9l8-8"/></svg><svg width="19" height="26" viewBox="-4 -4 19 26" id="arrow_left_11x18_white" x="131" y="98" xmlns="http://www.w3.org/2000/svg"><path fill="none" stroke="#fff" stroke-width="2" d="M10 17L2 9l8-8"/></svg><svg width="31" height="41" viewBox="-4 -4 31 41" id="arrow_left_23x33_white" x="100" xmlns="http://www.w3.org/2000/svg"><g fill="none" fill-rule="evenodd"><path fill="#000" d="M15.978 0v1.001h-1V2h-1.001v1h-1v1h-1v1h-1v.999h-1v1h-1v1h-1V9h-1v1h-1v1h-1v1h-1v1h-1v1h-1v.999h-1v1h-1v1h1v1h1V19h1v1h1v1h1v1h1v1h1v.999h1v1h1v1h1v1h1V28h1v1h1v1h1v1h1v1.007h1V33h7v-3h-1v-1h-1v-1h-1v-1.001h-1v-1h-1v-1h-1v-1h-1V23h-1v-1h-1v-1h-1v-1h-1v-1h-1v-1.001h-1v-1h-1v-1h1v-1h1V14h1v-1h1v-1h1v-1h1v-1h1V9h1V7.999h1v-1h1v-1h1V5h1V4h1V3h1V0z" opacity=".1"/><path fill="#FFF" d="M16.978 1v1h-1.001v1h-1v1h-1v1h-1v.999h-1v1h-1v1h-1V9h-1v1h-1v1h-1v1h-1v1h-1v1h-1v.999h-1v1h-1v1h1v1h1V19h1v1h1v1h1v1h1v1h1v.999h1v1h1v1h1v1h1V28h1v1h1v1h1v1h1v1h5v-1h-1v-1h-1v-1h-1v-1h-1v-1.001h-1v-1h-1v-1h-1v-1h-1V23h-1v-1h-1v-1h-1v-1h-1v-1h-1v-1.001h-1v-1h-1v-1h1v-1h1V14h1v-1h1v-1h1v-1h1v-1h1V9h1V7.999h1v-1h1v-1h1V5h1V4h1V3h1V2h1V1z"/></g></svg><svg width="50" height="90" viewBox="-4 -4 50 90" id="arrow_left_42x82_white" xmlns="http://www.w3.org/2000/svg"><defs><filter id="ata" width="107.5%" height="103.7%" x="-3.7%" y="-1.9%" filterUnits="objectBoundingBox"><feOffset in="SourceAlpha" result="shadowOffsetOuter1"/><feGaussianBlur in="shadowOffsetOuter1" result="shadowBlurOuter1" stdDeviation=".5"/><feColorMatrix in="shadowBlurOuter1" values="0 0 0 0 0 0 0 0 0 0 0 0 0 0 0 0 0 0 0.2 0"/></filter><path id="atb" d="M6.446 270l34.03 36.696a1.948 1.948 0 01-.136 2.79 2.043 2.043 0 01-2.846-.133L1 270l36.494-39.353a2.043 2.043 0 012.846-.133c.824.734.885 1.983.136 2.79L6.446 270z"/></defs><g fill="none" transform="translate(0 -229)"><use fill="#000" filter="url(#ata)" xlink:href="#atb"/><use fill="#FFF" fill-rule="evenodd" xlink:href="#atb"/></g></svg><svg width="12" height="16" viewBox="-4 -4 12 16" id="arrow_left_4x8_gray" x="116" y="90" xmlns="http://www.w3.org/2000/svg"><path fill="#A4A4A4" fill-rule="evenodd" d="M3.608 8L4 7.58.67 4 4 .42 3.608 0 .081 3.79a.313.313 0 000 .42L3.608 8z"/></svg><svg width="14" height="19" viewBox="-4 -4 14 19" id="arrow_left_6x11_white" x="174" y="40" xmlns="http://www.w3.org/2000/svg"><path fill="none" stroke="#FFF" d="M5 1L1 5.5 5 10"/></svg><svg width="16" height="22" viewBox="-4 -4 16 22" id="arrow_left_8x14_black" x="158" xmlns="http://www.w3.org/2000/svg"><path d="M7.744 12.652a.763.763 0 01.042 1.1.816.816 0 01-1.13.04l-6.4-5.778a.763.763 0 01-.04-1.1l6.4-6.667A.816.816 0 017.745.21c.323.293.34.785.039 1.1L1.932 7.404l5.812 5.247z"/></svg><svg width="17" height="26" viewBox="-4 -4 17 26" id="arrow_left_9x18_black" y="128" xmlns="http://www.w3.org/2000/svg"><path fill="#000" d="M9 18v-2.576L2.206 9 9 2.402V0L.468 8.104a1.498 1.498 0 000 2.175L9 18z" fill-rule="evenodd"/></svg><svg width="27" height="27" viewBox="-4 -4 27 27" id="arrow_left_square_19x19_gray" x="131" xmlns="http://www.w3.org/2000/svg"><defs><path id="aya" d="M0 0h19v19H0z"/></defs><g fill="none" fill-rule="evenodd"><g transform="matrix(-1 0 0 1 19 0)"><use fill="#FFF" xlink:href="#aya"/><path stroke="#E0E0E0" d="M.5.5h18v18H.5z"/></g><path fill="#777" d="M11.998 6v.997h-.999v1.01h-.997v1L9.004 9v1.006h.999v1.002h.996v1.003h1V13h-1.997v-.99h-.998L9 11.007H8l-.003-1H7v-1h1.001l-.003-1H9v-1.01h1.002V6z"/></g></svg><svg width="18" height="29" viewBox="-4 -4 18 29" id="arrow_right_10x21_gray" x="43" y="90" xmlns="http://www.w3.org/2000/svg"><path fill="#555" fill-rule="evenodd" d="M.588 21L0 20.421 8.997 10.5 0 .579.588 0l9.29 10.21a.404.404 0 010 .58L.588 21z"/></svg><svg width="19" height="26" viewBox="-4 -4 19 26" id="arrow_right_11x18_black" x="17" y="128" xmlns="http://www.w3.org/2000/svg"><path fill="none" stroke="#333" stroke-width="2" d="M1 17l8-8-8-8"/></svg><svg width="19" height="26" viewBox="-4 -4 19 26" id="arrow_right_11x18_white" x="36" y="128" xmlns="http://www.w3.org/2000/svg"><path fill="none" stroke="#fff" stroke-width="2" d="M1 17l8-8-8-8"/></svg><svg width="25" height="38" viewBox="-4 -4 25 38" id="arrow_right_17x30_white" y="90" xmlns="http://www.w3.org/2000/svg"><path fill="none" stroke="#FFF" stroke-linecap="round" stroke-linejoin="round" stroke-width="2" d="M2 29l14-14.002L2 1"/></svg><svg width="31" height="41" viewBox="-4 -4 31 41" id="arrow_right_23x33_white" x="100" y="41" xmlns="http://www.w3.org/2000/svg"><g fill="none" fill-rule="evenodd"><path fill="#000" d="M7.022 0v1.001h1V2h1.001v1h1v1h1v1h1v.999h1v1h1v1h1V9h1v1h1v1h1v1h1v1h1v1h1v.999h1v1h1v1h-1v1h-1V19h-1v1h-1v1h-1v1h-1v1h-1v.999h-1v1h-1v1h-1v1h-1V28h-1v1h-1v1h-1v1h-1v1.007h-1V33h-7v-3h1v-1h1v-1h1v-1.001h1v-1h1v-1h1v-1h1V23h1v-1h1v-1h1v-1h1v-1h1v-1.001h1v-1h1v-1h-1v-1h-1V14h-1v-1h-1v-1h-1v-1h-1v-1h-1V9h-1V7.999h-1v-1h-1v-1h-1V5h-1V4h-1V3h-1V0z" opacity=".1"/><path fill="#FFF" d="M6.022 1v1h1.001v1h1v1h1v1h1v.999h1v1h1v1h1V9h1v1h1v1h1v1h1v1h1v1h1v.999h1v1h1v1h-1v1h-1V19h-1v1h-1v1h-1v1h-1v1h-1v.999h-1v1h-1v1h-1v1h-1V28h-1v1h-1v1h-1v1h-1v1h-5v-1h1v-1h1v-1h1v-1h1v-1.001h1v-1h1v-1h1v-1h1V23h1v-1h1v-1h1v-1h1v-1h1v-1.001h1v-1h1v-1h-1v-1h-1V14h-1v-1h-1v-1h-1v-1h-1v-1h-1V9h-1V7.999h-1v-1h-1v-1h-1V5h-1V4h-1V3h-1V2h-1V1z"/></g></svg><svg width="50" height="90" viewBox="-4 -4 50 90" id="arrow_right_42x82_white" x="50" xmlns="http://www.w3.org/2000/svg"><defs><filter id="bea" width="107.5%" height="103.7%" x="-3.7%" y="-1.9%" filterUnits="objectBoundingBox"><feOffset in="SourceAlpha" result="shadowOffsetOuter1"/><feGaussianBlur in="shadowOffsetOuter1" result="shadowBlurOuter1" stdDeviation=".5"/><feColorMatrix in="shadowBlurOuter1" values="0 0 0 0 0 0 0 0 0 0 0 0 0 0 0 0 0 0 0.2 0"/></filter><path id="beb" d="M1268.446 270l34.03 36.696a1.948 1.948 0 01-.136 2.79 2.043 2.043 0 01-2.846-.133L1263 270l36.494-39.353a2.043 2.043 0 012.846-.133c.824.734.885 1.983.136 2.79L1268.446 270z"/></defs><g fill="none" transform="matrix(-1 0 0 1 1304 -229)"><use fill="#000" filter="url(#bea)" xlink:href="#beb"/><use fill="#FFF" fill-rule="evenodd" xlink:href="#beb"/></g></svg><svg width="12" height="14" viewBox="-4 -4 12 14" id="arrow_right_4x10_gray" x="202" y="78" xmlns="http://www.w3.org/2000/svg"><path fill="#D8D8D8" fill-rule="evenodd" d="M0 0v6l4-3z"/></svg><svg width="12" height="15" viewBox="-4 -4 12 15" id="arrow_right_4x7_darkgray" x="202" y="48" xmlns="http://www.w3.org/2000/svg"><path fill="#777" fill-rule="evenodd" d="M.011.55L.705.009l3.293 3.496L.705 7.001.011 6.46l2.783-2.955L.011.55z"/></svg><svg width="12" height="16" viewBox="-4 -4 12 16" id="arrow_right_4x8_gray" x="190" xmlns="http://www.w3.org/2000/svg"><path fill="#A4A4A4" fill-rule="evenodd" d="M.392 8L0 7.58 3.332 4 0 .42.392 0l3.527 3.79a.313.313 0 010 .42L.392 8z"/></svg><svg width="13" height="15" viewBox="-4 -4 13 15" id="arrow_right_5x7_black" x="202" y="63" xmlns="http://www.w3.org/2000/svg"><path d="M0 .68L.647 0 5 3.5.647 7 0 6.32 3.507 3.5z"/></svg><svg width="13" height="16" viewBox="-4 -4 13 16" id="arrow_right_5x8_blue" x="202" xmlns="http://www.w3.org/2000/svg"><path fill="#4C91E2" d="M0 .941L.584 0 5 4 .584 8 0 7.059 3.377 4z"/></svg><svg width="13" height="16" viewBox="-4 -4 13 16" id="arrow_right_5x8_lightgray" x="202" y="16" xmlns="http://www.w3.org/2000/svg"><path fill="#CCC" fill-rule="evenodd" d="M.734 8L0 7.33 3.746 4 0 .67.734 0l4.114 3.665a.445.445 0 010 .67L.734 8z"/></svg><svg width="13" height="16" viewBox="-4 -4 13 16" id="arrow_right_5x8_white" x="202" y="32" xmlns="http://www.w3.org/2000/svg"><path fill="#fff" fill-rule="evenodd" d="M.838 0L0 .805 3.323 4 0 7.195.838 8 5 4z"/></svg><svg width="13" height="17" viewBox="-4 -4 13 17" id="arrow_right_5x9_gray" x="174" y="133" xmlns="http://www.w3.org/2000/svg"><path fill="#ADADAD" fill-rule="evenodd" d="M.715 0L0 .75 3.572 4.5 0 8.25.715 9l3.571-3.75L5 4.5l-.714-.75z"/></svg><svg width="13" height="17" viewBox="-4 -4 13 17" id="arrow_right_5x9_white" x="174" y="150" xmlns="http://www.w3.org/2000/svg"><path fill="#FFF" fill-rule="evenodd" d="M0 0h1v1H0V0zm1 1h1v1H1V1zm1 1h1v1H2V2zm1 1h1v1H3V3zm1 1h1v1H4V4zM3 5h1v1H3V5zM2 6h1v1H2V6zM1 7h1v1H1V7zM0 8h1v1H0V8z"/></svg><svg width="14" height="18" viewBox="-4 -4 14 18" id="arrow_right_6x10_gray" x="174" y="97" xmlns="http://www.w3.org/2000/svg"><path fill="#CCC" fill-rule="evenodd" d="M.734 10L0 9.33 4.746 5 0 .67.734 0l5.114 4.665a.444.444 0 010 .67L.734 10z"/></svg><svg width="14" height="18" viewBox="-4 -4 14 18" id="arrow_right_6x10_white" x="174" y="115" xmlns="http://www.w3.org/2000/svg"><path fill="#FFF" fill-rule="evenodd" d="M.734 10L0 9.33 4.746 5 0 .67.734 0l5.114 4.665a.444.444 0 010 .67L.734 10z"/></svg><svg width="14" height="19" viewBox="-4 -4 14 19" id="arrow_right_6x11_black" x="174" y="59" xmlns="http://www.w3.org/2000/svg"><path fill-rule="evenodd" d="M.588 11L0 10.421 4.997 5.5 0 .579.588 0l5.29 5.21c.16.155.164.411.009.571l-.009.009L.588 11z"/></svg><svg width="14" height="19" viewBox="-4 -4 14 19" id="arrow_right_6x11_white" x="174" y="78" xmlns="http://www.w3.org/2000/svg"><path fill="none" stroke="#FFF" d="M1 1l4 4.5L1 10"/></svg><svg width="14" height="20" viewBox="-4 -4 14 20" id="arrow_right_6x12_black" x="158" y="44" xmlns="http://www.w3.org/2000/svg"><path fill-rule="evenodd" d="M.146 11.84a.583.583 0 010-.772L4.793 6 .146.932a.583.583 0 010-.772.472.472 0 01.708 0l5 5.454a.583.583 0 010 .772l-5 5.455A.482.482 0 01.5 12a.482.482 0 01-.354-.16z"/></svg><svg width="14" height="20" viewBox="-4 -4 14 20" id="arrow_right_6x12_white" x="158" y="64" xmlns="http://www.w3.org/2000/svg"><path fill="#FFF" fill-rule="evenodd" d="M.146 11.84a.583.583 0 010-.772L4.793 6 .146.932a.583.583 0 010-.772.472.472 0 01.708 0l5 5.454a.583.583 0 010 .772l-5 5.455A.482.482 0 01.5 12a.482.482 0 01-.354-.16z"/></svg><svg width="15" height="20" viewBox="-4 -4 15 20" id="arrow_right_7x12_gray" x="158" y="84" xmlns="http://www.w3.org/2000/svg"><path fill="rgba(255, 255, 255, 0.7)" d="M.147.787a.435.435 0 010-.652.534.534 0 01.71 0l5.996 5.508c.195.18.196.47.002.65l-5.997 5.57a.534.534 0 01-.71.004.435.435 0 01-.003-.652L5.79 5.971.147.787z" opacity=".7"/></svg><svg width="15" height="20" viewBox="-4 -4 15 20" id="arrow_right_7x12_white" x="158" y="104" xmlns="http://www.w3.org/2000/svg"><path fill="#FFF" d="M.147.787a.435.435 0 010-.652.534.534 0 01.71 0l5.996 5.508c.195.18.196.47.002.65l-5.997 5.57a.534.534 0 01-.71.004.435.435 0 01-.003-.652L5.79 5.971.147.787z" opacity=".7"/></svg><svg width="16" height="20" viewBox="-4 -4 16 20" id="arrow_right_8x12_black" x="158" y="124" xmlns="http://www.w3.org/2000/svg"><g fill="none" fill-rule="evenodd"><path d="M0 0h8v12H0z"/><path stroke="#000" stroke-width="1.5" d="M1 1l5 4.99L1.06 11"/></g></svg><svg width="16" height="22" viewBox="-4 -4 16 22" id="arrow_right_8x14_black" x="158" y="22" xmlns="http://www.w3.org/2000/svg"><path d="M.256 12.652a.763.763 0 00-.042 1.1c.3.314.807.332 1.13.04l6.4-5.778a.763.763 0 00.04-1.1L1.385.247A.816.816 0 00.255.21a.763.763 0 00-.039 1.1l5.853 6.096-5.812 5.247z"/></svg><svg width="17" height="26" viewBox="-4 -4 17 26" id="arrow_right_9x18_black" x="55" y="128" xmlns="http://www.w3.org/2000/svg"><path fill-rule="evenodd" d="M0 18v-2.576L6.794 9 0 2.402V0l8.532 8.104a1.498 1.498 0 010 2.175L0 18z"/></svg><svg width="16" height="20" viewBox="-4 -4 16 20" id="arrow_right_mask_8x12_gray" x="174" xmlns="http://www.w3.org/2000/svg"><path fill="#f7f8f9" fill-rule="evenodd" d="M8 0v12H0V0h8zM2.006 1L1 2.007 4.988 6 1 9.993 2.006 11 7 6 2.006 1z"/></svg><svg width="16" height="20" viewBox="-4 -4 16 20" id="arrow_right_mask_8x12_white" x="174" y="20" xmlns="http://www.w3.org/2000/svg"><path fill="#FFF" fill-rule="evenodd" d="M8 0v12H0V0h8zM2.006 1L1 2.007 4.988 6 1 9.993 2.006 11 7 6 2.006 1z"/></svg><svg width="27" height="27" viewBox="-4 -4 27 27" id="arrow_right_square_19x19_gray" x="131" y="27" xmlns="http://www.w3.org/2000/svg"><defs><path id="cba" d="M0 0h19v19H0z"/></defs><g fill="none" fill-rule="evenodd"><use fill="#FFF" xlink:href="#cba"/><path stroke="#E0E0E0" d="M.5.5h18v18H.5z"/><path fill="#777" d="M7.002 6v.997H8v1.01h.997v1L9.994 9v1.006h-.998v1.002H8v1.003H7V13h1.998v-.99h.997L10 11.007h.998l.004-1h.997v-1h-1l.003-1H10v-1.01H8.998V6z"/></g></svg><svg width="19" height="14" viewBox="-4 -4 19 14" id="arrow_up_11x6_black" x="60" y="154" xmlns="http://www.w3.org/2000/svg"><path fill-rule="evenodd" d="M5.25 0a.325.325 0 00-.24.107L0 5.487.479 6 5.25.877 10.022 6l.478-.514L5.49.106A.325.325 0 005.25 0"/></svg><svg width="19" height="15" viewBox="-4 -4 19 15" id="arrow_up_11x7_gray" x="38" y="170" xmlns="http://www.w3.org/2000/svg"><path fill="#979797" d="M10.116 6.82a.5.5 0 10.768-.64l-5-6a.5.5 0 00-.768 0l-5 6a.5.5 0 00.768.64L5.5 1.281l4.616 5.54z"/></svg><svg width="22" height="16" viewBox="-4 -4 22 16" id="arrow_up_14x8_black" y="154" xmlns="http://www.w3.org/2000/svg"><path fill="#010101" fill-rule="evenodd" d="M13 6V5h-1V4h-1V3h-1V2H9V1H8V0H6v1H5v1H4v1H3v1H2v1H1v1H0v2h1V7h1V6h1V5h1V4h1V3h1V2h2v1h1v1h1v1h1v1h1v1h1v1h1V6h-1z"/></svg><svg width="23" height="16" viewBox="-4 -4 23 16" id="arrow_up_15x8_black" x="95" y="128" xmlns="http://www.w3.org/2000/svg"><path fill="#292b2c" fill-rule="evenodd" d="M7.5 0a.502.502 0 00-.354.146l-7 7a.502.502 0 00.708.708L7.5 1.207l6.646 6.647a.502.502 0 00.708-.708l-7-7A.502.502 0 007.5 0"/></svg><svg width="27" height="18" viewBox="-4 -4 27 18" id="arrow_up_19x10_black" x="131" y="54" xmlns="http://www.w3.org/2000/svg"><path fill="none" stroke="#000" d="M18.5 9.5l-9-9-9 9"/></svg><svg width="28" height="18" viewBox="-4 -4 28 18" id="arrow_up_20x10_black" x="61" y="90" xmlns="http://www.w3.org/2000/svg"><path fill="#040404" fill-rule="evenodd" d="M10 0L0 9.36l.684.64L10 1.279 19.317 10l.684-.64z"/></svg><svg width="17" height="13" viewBox="-4 -4 17 13" id="arrow_up_9x5_darkgray" x="96" y="154" xmlns="http://www.w3.org/2000/svg"><g fill="#FFF" fill-rule="evenodd"><path stroke="#3D3D50" d="M1.5 3.5h1v-1h1v-1h1v-.25.25h1v1h1v1h1v1h.25H0l.5.5V4l-.5.5h1.5v-1zm6.25 1h.75-.75z"/><path d="M2 4h5v1H2z"/></g></svg><svg width="17" height="13" viewBox="-4 -4 17 13" id="arrow_up_9x5_gray" x="113" y="154" xmlns="http://www.w3.org/2000/svg"><path fill="#555" fill-rule="evenodd" d="M0 5h9L4.5 0z"/></svg></svg>