<?xml version="1.0" encoding="utf-8"?><svg width="129" height="112" viewBox="0 0 129 112" xmlns="http://www.w3.org/2000/svg" xmlns:xlink="http://www.w3.org/1999/xlink"><svg width="15" height="24" viewBox="-4 -4 15 24" id="text_1_7x16_black" x="95" y="52" xmlns="http://www.w3.org/2000/svg"><path fill-rule="evenodd" d="M4.598 0L0 1.362l.73 2.86 2.793-.683V16H7V0z"/></svg><svg width="15" height="24" viewBox="-4 -4 15 24" id="text_1_7x16_white" x="110" y="52" xmlns="http://www.w3.org/2000/svg"><path fill="#FFF" fill-rule="evenodd" d="M4.598 0L0 1.362l.73 2.86 2.793-.683V16H7V0z"/></svg><svg width="20" height="24" viewBox="-4 -4 20 24" id="text_2_12x16_black" y="88" xmlns="http://www.w3.org/2000/svg"><path fill-rule="evenodd" d="M2.71 5.229L.21 3.268C1.807 1.149 3.359 0 6.256 0c3.45 0 5.582 1.938 5.582 4.89 0 2.637-1.39 3.966-4.263 6.13l-2.64 1.983H12V16H0v-2.75l5.398-4.303C7.414 7.325 8.2 6.468 8.2 5.161c0-1.33-.902-2.05-2.176-2.05-1.251 0-2.108.675-3.313 2.118"/></svg><svg width="20" height="24" viewBox="-4 -4 20 24" id="text_2_12x16_white" x="20" y="88" xmlns="http://www.w3.org/2000/svg"><path fill="#FFF" fill-rule="evenodd" d="M2.71 5.229L.21 3.268C1.807 1.149 3.359 0 6.256 0c3.45 0 5.582 1.938 5.582 4.89 0 2.637-1.39 3.966-4.263 6.13l-2.64 1.983H12V16H0v-2.75l5.398-4.303C7.414 7.325 8.2 6.468 8.2 5.161c0-1.33-.902-2.05-2.176-2.05-1.251 0-2.108.675-3.313 2.118"/></svg><svg width="20" height="24" viewBox="-4 -4 20 24" id="text_3_12x16_black" x="40" y="88" xmlns="http://www.w3.org/2000/svg"><path fill-rule="evenodd" d="M.937 2.967V0H11.75v2.607L7.704 6.405C9.898 6.765 12 7.887 12 10.831 12 13.82 9.805 16 6.24 16 3.36 16 1.373 14.876 0 13.28l2.423-2.27c1.097 1.215 2.24 1.89 3.863 1.89 1.325 0 2.264-.742 2.264-1.933 0-1.304-1.12-2.023-3.132-2.023H3.955l-.549-2.202 3.818-3.774H.937z"/></svg><svg width="20" height="24" viewBox="-4 -4 20 24" id="text_3_12x16_white" x="60" y="88" xmlns="http://www.w3.org/2000/svg"><path fill="#FFF" fill-rule="evenodd" d="M.937 2.967V0H11.75v2.607L7.704 6.405C9.898 6.765 12 7.887 12 10.831 12 13.82 9.805 16 6.24 16 3.36 16 1.373 14.876 0 13.28l2.423-2.27c1.097 1.215 2.24 1.89 3.863 1.89 1.325 0 2.264-.742 2.264-1.933 0-1.304-1.12-2.023-3.132-2.023H3.955l-.549-2.202 3.818-3.774H.937z"/></svg><svg width="21" height="24" viewBox="-4 -4 21 24" id="text_4_13x16_white" x="80" y="88" xmlns="http://www.w3.org/2000/svg"><path fill="#FFF" fill-rule="evenodd" d="M8 5l-4 5h4V5zm2.99-5v9.737H13v2.836h-2.01V16H7.847v-3.427H.535L0 10.1 8.21 0h2.78z"/></svg><svg width="20" height="24" viewBox="-4 -4 20 24" id="text_5_12x16_white" x="101" y="88" xmlns="http://www.w3.org/2000/svg"><path fill="#FFF" fill-rule="evenodd" d="M1.523 0h9.774v3.034H4.523l-.182 2.72c.637-.158 1.205-.272 2.092-.272C9.569 5.482 12 6.967 12 10.54 12 13.887 9.615 16 5.955 16 3.41 16 1.545 15.101 0 13.64l2.114-2.494c1.205 1.078 2.387 1.708 3.796 1.708 1.636 0 2.66-.787 2.66-2.203 0-1.37-1.115-2.157-2.82-2.157-1 0-1.909.27-2.659.584L1.068 7.753 1.523 0z"/></svg><svg width="33" height="15" viewBox="-4 -4 33 15" id="text_best_25x7_white" x="95" y="15" xmlns="http://www.w3.org/2000/svg"><path fill="#FFF" fill-rule="evenodd" d="M3.797 2.848c.72 0 1.148-.262 1.148-.826 0-.35-.264-.613-.883-.613H2.74l-.355 1.44h1.411zM3.342 5.59c.701 0 1.139-.33 1.139-.855 0-.399-.301-.642-.875-.642h-1.54L1.694 5.59h1.649zM1.712.097h2.477c1.503 0 2.159.758 2.159 1.672 0 .904-.547 1.488-1.367 1.682.529.263.893.68.893 1.38 0 1.216-.974 2.072-2.741 2.072H0L1.712.097zm6.53 0h4.764l-.337 1.332h-3.37l-.346 1.39h2.96l-.337 1.313h-2.96l-.365 1.44h3.425l-.337 1.331H6.53L8.242.097zm4.145 5.649l1.056-.953c.501.583 1.057.894 1.785.894.565 0 .975-.282.975-.71 0-.33-.228-.524-1.084-.893-.829-.36-1.567-.836-1.567-1.838C13.552.856 14.718 0 16.084 0c1.093 0 1.85.398 2.387 1.01l-.966 1.032c-.482-.477-.91-.73-1.53-.73-.592 0-.929.35-.929.691 0 .36.255.515 1.12.894.875.379 1.53.846 1.53 1.838C17.697 6.164 16.504 7 15.166 7c-1.23 0-2.177-.428-2.778-1.254zm8.424-4.268h-1.94l.346-1.381H24.5l-.346 1.38h-1.94l-1.366 5.426h-1.403l1.366-5.425z"/></svg><svg width="36" height="16" viewBox="-4 -4 36 16" id="text_best_28x8_black" y="72" xmlns="http://www.w3.org/2000/svg"><path fill-rule="evenodd" d="M4.34 3.255c.822 0 1.311-.3 1.311-.944 0-.4-.301-.7-1.01-.7H3.133l-.405 1.644H4.34zM3.82 6.39c.801 0 1.3-.378 1.3-.978 0-.456-.343-.733-.999-.733H2.362L1.935 6.39H3.82zM1.955.111h2.832c1.717 0 2.467.866 2.467 1.91 0 1.034-.625 1.701-1.562 1.923.604.3 1.02.778 1.02 1.578 0 1.39-1.114 2.367-3.133 2.367H0L1.956.111zm7.464 0h5.444l-.385 1.522h-3.852l-.395 1.59h3.382l-.384 1.5H9.847L9.43 6.366h3.914l-.385 1.522H7.463L9.42.111zm4.736 6.456l1.208-1.09c.572.667 1.207 1.023 2.04 1.023.645 0 1.114-.322 1.114-.811 0-.378-.26-.6-1.24-1.022-.946-.412-1.79-.956-1.79-2.1C15.489.977 16.822 0 18.383 0c1.25 0 2.113.455 2.727 1.155l-1.103 1.179c-.552-.546-1.04-.834-1.749-.834-.676 0-1.061.4-1.061.79 0 .41.291.588 1.28 1.02 1 .434 1.749.967 1.749 2.1C20.225 7.045 18.86 8 17.33 8c-1.405 0-2.488-.489-3.175-1.433zm9.628-4.878h-2.217L21.963.11H28l-.396 1.578h-2.217l-1.561 6.2h-1.603l1.561-6.2z" opacity=".2"/></svg><svg width="36" height="16" viewBox="-4 -4 36 16" id="text_best_28x8_white" x="36" y="72" xmlns="http://www.w3.org/2000/svg"><path fill="#FFF" fill-rule="evenodd" d="M4.34 3.255c.822 0 1.311-.3 1.311-.944 0-.4-.301-.7-1.01-.7H3.133l-.405 1.644H4.34zM3.82 6.39c.801 0 1.3-.378 1.3-.978 0-.456-.343-.733-.999-.733H2.362L1.935 6.39H3.82zM1.955.111h2.832c1.717 0 2.467.866 2.467 1.91 0 1.034-.625 1.701-1.562 1.923.604.3 1.02.778 1.02 1.578 0 1.39-1.114 2.367-3.133 2.367H0L1.956.111zm7.464 0h5.444l-.385 1.522h-3.852l-.395 1.59h3.382l-.384 1.5H9.847L9.43 6.366h3.914l-.385 1.522H7.463L9.42.111zm4.736 6.456l1.208-1.09c.572.667 1.207 1.023 2.04 1.023.645 0 1.114-.322 1.114-.811 0-.378-.26-.6-1.24-1.022-.946-.412-1.79-.956-1.79-2.1C15.489.977 16.822 0 18.383 0c1.25 0 2.113.455 2.727 1.155l-1.103 1.179c-.552-.546-1.04-.834-1.749-.834-.676 0-1.061.4-1.061.79 0 .41.291.588 1.28 1.02 1 .434 1.749.967 1.749 2.1C20.225 7.045 18.86 8 17.33 8c-1.405 0-2.488-.489-3.175-1.433zm9.628-4.878h-2.217L21.963.11H28l-.396 1.578h-2.217l-1.561 6.2h-1.603l1.561-6.2z" opacity=".5"/></svg><svg width="31" height="22" viewBox="-4 -4 31 22" id="text_excellent_23x14_blue" x="95" y="30" xmlns="http://www.w3.org/2000/svg"><path fill="#2EB1D4" fill-rule="evenodd" d="M2 0h19a2 2 0 012 2v10a2 2 0 01-2 2H2a2 2 0 01-2-2V2a2 2 0 012-2zm4.577 2c-2.034 0-3.354.885-3.354 2.19v.398c0 1.306 1.32 2.19 3.354 2.19s3.354-.884 3.354-2.19V4.19C9.931 2.885 8.611 2 6.577 2zm.54 10V8.95h4.037V7.92H2v1.03h4.036V12h1.082zm-.54-6.173c-1.385 0-2.305-.52-2.305-1.26v-.355c0-.74.92-1.26 2.305-1.26 1.385 0 2.305.52 2.305 1.26v.354c0 .742-.92 1.261-2.305 1.261zM16.964 12V8.99H21V7.96h-9.154v1.03h4.036V12h1.082zm.66-6.372c.584.299 1.418.686 2.305 1.04l.411-.885c-.8-.31-1.688-.697-2.38-1.084-.736-.41-1.007-.807-1.007-1.637v-.907h-1.07v.907c0 .83-.282 1.228-1.018 1.637-.692.387-1.58.774-2.38 1.084l.422.896c.887-.354 1.72-.74 2.304-1.04.714-.365 1.071-.652 1.201-.896.152.244.498.52 1.212.885z"/></svg><svg width="72" height="19" viewBox="-4 -4 72 19" id="text_naver_64x11_green" y="38" xmlns="http://www.w3.org/2000/svg"><path fill="#20B400" fill-rule="evenodd" d="M8.542 0h4.422v11H8.527L4.421 5.448V11H0V0h4.436l4.106 5.548V0zm51.882 6.886L64 11h-5.083l-2.64-3.436V11h-4.423V0h5.525c3.201 0 5.63.91 5.63 3.743 0 1.687-1.015 2.737-2.585 3.143zM58.25 4.644a.908.908 0 00.38-.774c0-.341-.117-.609-.362-.808-.247-.196-.756-.296-1.203-.296h-.93v2.167h.948c.412 0 .909-.095 1.167-.29zM41.075 0h8.966v2.864h-4.586v1.294h4.225v2.705h-4.225v1.272h4.726V11h-9.106V0zM23.61 0l4.654 11h-4.918l-.43-1.438H19.26L18.831 11h-4.918l4.654-11h5.043zm-3.623 7.02h2.202l-1.04-3.63h-.123l-1.039 3.63zM35.304 0h4.823l-4.976 11h-4.176L26 0h4.823L33 6.63h.123L35.304 0z"/></svg><svg width="34" height="15" viewBox="-4 -4 34 15" id="text_new_26x7_red" x="56" y="57" xmlns="http://www.w3.org/2000/svg"><path fill="#e84c4a" fill-rule="evenodd" d="M6.322 0h1.47L5.974 7H4.707L2.658 2.41 1.47 7H0l1.817-7H3.19l1.972 4.45L6.322 0zm3.343 0h5.21l-.369 1.37H10.82l-.378 1.43h3.237l-.368 1.35h-3.238l-.4 1.48h3.747L13.051 7h-5.26l1.874-7zm10.182 0h1.223l.297 4.713L23.887.02H25.5L21.534 7h-1.326l-.315-4.446L17.353 7h-1.307L15.583.02h1.483l.167 4.693L19.847 0z"/></svg><svg width="34" height="15" viewBox="-4 -4 34 15" id="text_new_26x7_white" x="95" xmlns="http://www.w3.org/2000/svg"><path fill="#FFF" fill-rule="evenodd" d="M6.322 0h1.47L5.974 7H4.707L2.658 2.41 1.47 7H0l1.817-7H3.19l1.972 4.45L6.322 0zm3.343 0h5.21l-.369 1.37H10.82l-.378 1.43h3.237l-.368 1.35h-3.238l-.4 1.48h3.747L13.051 7h-5.26l1.874-7zm10.182 0h1.223l.297 4.713L23.887.02H25.5L21.534 7h-1.326l-.315-4.446L17.353 7h-1.307L15.583.02h1.483l.167 4.693L19.847 0z"/></svg><svg width="22" height="14" viewBox="-4 -4 22 14" id="text_off_14x6_white" x="72" y="38" xmlns="http://www.w3.org/2000/svg"><path fill="#fff" fill-rule="evenodd" d="M2.657 0c1.631 0 2.657 1.155 2.657 3.002C5.314 4.849 4.288 6 2.657 6 1.022 6 0 4.85 0 3.002 0 1.155 1.022 0 2.657 0zm0 .793C1.58.793.9 1.646.9 3.002c0 1.352.68 2.205 1.757 2.205S4.41 4.354 4.41 3.002c0-1.356-.676-2.21-1.753-2.21zm4.374 5.11v-2.43h2.437v-.76H7.031V.872h2.661V.097H6.151v5.806h.88zm4.308 0v-2.43h2.437v-.76h-2.437V.872H14V.097h-3.541v5.806h.88z"/></svg><svg width="19" height="14" viewBox="-4 -4 19 14" id="text_on_11x6_white" x="72" y="72" xmlns="http://www.w3.org/2000/svg"><path fill="#fff" fill-rule="evenodd" d="M2.712 0c1.665 0 2.712 1.155 2.712 3.002C5.424 4.849 4.377 6 2.712 6 1.043 6 0 4.85 0 3.002 0 1.155 1.043 0 2.712 0zm0 .793c-1.1 0-1.793.853-1.793 2.209 0 1.352.694 2.205 1.793 2.205 1.1 0 1.79-.853 1.79-2.205 0-1.356-.69-2.21-1.79-2.21zm4.44 5.11V1.626h.037l3 4.277H11V.097h-.875v4.281h-.032l-3-4.281h-.815v5.806h.875z"/></svg><svg width="88" height="18" viewBox="-4 -4 88 18" id="text_review_event_80x10_white" y="20" xmlns="http://www.w3.org/2000/svg"><path fill="#FFF" d="M7.16 2.979c0-.383-.12-.669-.362-.857-.242-.188-.592-.282-1.05-.282h-.365l-.747 3.24h.521c.584 0 1.064-.184 1.44-.551.376-.367.564-.884.564-1.55zM4.009 7.786a2.289 2.289 0 00-.035.172.812.812 0 00-.014.124c0 .16.067.279.2.354.132.075.384.133.757.172L4.824 9H.704l.092-.392c.09-.004.223-.017.4-.04.177-.024.309-.05.395-.078a.659.659 0 00.32-.21.814.814 0 00.152-.327l1.23-5.328c.018-.076.03-.138.038-.188a.875.875 0 00.01-.113c0-.15-.075-.268-.227-.352-.153-.084-.4-.151-.744-.201l.09-.393h4.201c.874 0 1.53.124 1.969.371.438.247.658.621.658 1.123 0 .59-.213 1.085-.64 1.485-.426.399-1.027.692-1.804.878a178.555 178.555 0 001.337 2.38c.086.153.198.328.336.523s.284.32.438.373c.075.025.179.047.311.065.133.018.227.028.285.032L9.454 9H6.672a34.227 34.227 0 00-.862-1.85 31.161 31.161 0 00-.894-1.604h-.387l-.521 2.24zm8.696 1.391a3.34 3.34 0 01-1.131-.174 2.174 2.174 0 01-.803-.486 2.021 2.021 0 01-.467-.725 2.572 2.572 0 01-.156-.914c0-.422.079-.832.236-1.23.158-.397.392-.755.704-1.074a3.311 3.311 0 011.117-.741 3.81 3.81 0 011.493-.285c.641 0 1.13.102 1.464.306.335.205.502.51.502.919 0 .39-.145.726-.435 1.007-.29.281-.684.49-1.182.626-.393.118-.73.202-1.007.252-.277.05-.616.097-1.018.14.008.157.03.335.065.532.036.197.09.365.161.504a.98.98 0 00.365.385c.158.094.358.142.602.142.422 0 .781-.082 1.077-.245.295-.162.577-.421.846-.776l.392.328a3.588 3.588 0 01-1.238 1.098 3.273 3.273 0 01-1.587.411zm1.213-4.254c0-.304-.055-.538-.166-.7a.529.529 0 00-.462-.245c-.276 0-.536.225-.781.674-.246.45-.402 1.018-.47 1.705.21-.025.42-.057.628-.096.208-.04.372-.086.494-.14.269-.118.462-.27.58-.456.118-.187.177-.434.177-.742zm8.476-.037c0 .505-.085 1.017-.255 1.536-.17.52-.41.98-.717 1.38-.365.47-.77.815-1.214 1.037a3.061 3.061 0 01-1.386.333c-.637 0-1.144-.149-1.52-.446-.376-.297-.564-.723-.564-1.278 0-.172.029-.357.086-.553.058-.197.13-.428.215-.693.072-.226.139-.449.202-.669.062-.22.093-.429.093-.626 0-.193-.042-.331-.128-.413-.086-.083-.24-.124-.462-.124a1.22 1.22 0 00-.352.054c-.12.036-.223.07-.309.102l.118-.484c.29-.118.568-.219.833-.303.265-.084.515-.126.752-.126.426 0 .754.106.985.32.231.212.347.477.347.792 0 .232-.032.48-.094.74a9.057 9.057 0 01-.196.704c-.061.187-.125.4-.191.642a2.32 2.32 0 00-.1.578c0 .304.074.548.22.73.148.183.384.274.71.274.487 0 .91-.182 1.267-.545.358-.364.538-.853.538-1.47a1.827 1.827 0 00-.054-.44.824.824 0 00-.231-.263 3.82 3.82 0 01-.29-.258 1.655 1.655 0 01-.274-.367 1.126 1.126 0 01-.118-.551c0-.19.036-.344.11-.462.073-.118.162-.215.266-.29.086-.06.189-.11.309-.145.12-.036.231-.054.335-.054.333 0 .595.12.784.358.19.238.285.564.285.98zm4.071 3.346l-.118.483a23.4 23.4 0 01-.848.32 2.24 2.24 0 01-.736.11c-.43 0-.764-.105-1.002-.314a1.016 1.016 0 01-.357-.798c0-.125.009-.253.027-.384.018-.13.046-.278.086-.443l.44-1.568c.04-.15.073-.293.1-.427a1.89 1.89 0 00.04-.368c0-.2-.041-.34-.124-.42-.082-.078-.24-.117-.472-.117-.115 0-.232.018-.352.053a5.42 5.42 0 00-.31.102l.119-.483c.29-.118.568-.22.833-.303a2.46 2.46 0 01.752-.127c.426 0 .754.103.985.31.231.205.347.473.347.802 0 .068-.009.188-.025.36s-.045.33-.088.473l-.44 1.563a4.344 4.344 0 00-.097.43 2.281 2.281 0 00-.043.365c0 .207.046.349.14.424.092.075.254.113.483.113.107 0 .229-.02.365-.057a1.8 1.8 0 00.295-.1zm.113-6.558a.915.915 0 01-.309.695 1.053 1.053 0 01-.744.288 1.06 1.06 0 01-.746-.288.912.912 0 01-.312-.695.92.92 0 01.312-.698c.208-.194.456-.29.746-.29s.538.096.744.29a.924.924 0 01.31.698zm3.013 7.503a3.34 3.34 0 01-1.13-.174 2.174 2.174 0 01-.803-.486 2.021 2.021 0 01-.468-.725 2.572 2.572 0 01-.155-.914c0-.422.078-.832.236-1.23.158-.397.392-.755.704-1.074a3.311 3.311 0 011.117-.741 3.81 3.81 0 011.493-.285c.64 0 1.129.102 1.464.306.334.205.502.51.502.919 0 .39-.145.726-.435 1.007-.29.281-.684.49-1.182.626-.394.118-.73.202-1.007.252-.277.05-.617.097-1.018.14.007.157.029.335.065.532.035.197.09.365.16.504.087.162.208.29.366.385.158.094.358.142.602.142.422 0 .781-.082 1.076-.245.296-.162.578-.421.846-.776l.393.328a3.588 3.588 0 01-1.239 1.098 3.273 3.273 0 01-1.587.411zm1.214-4.254c0-.304-.055-.538-.166-.7a.529.529 0 00-.462-.245c-.276 0-.536.225-.782.674-.245.45-.402 1.018-.47 1.705.212-.025.421-.057.629-.096.207-.04.372-.086.494-.14.268-.118.462-.27.58-.456.118-.187.177-.434.177-.742zm12.01-.037c0 .523-.086 1.04-.258 1.555a4.514 4.514 0 01-.72 1.361 3.884 3.884 0 01-1.138.991c-.44.253-.944.379-1.51.379-.522 0-.946-.102-1.27-.306a1.54 1.54 0 01-.663-.881c-.383.419-.76.719-1.128.9a2.72 2.72 0 01-1.214.27c-.415 0-.743-.128-.983-.386s-.36-.582-.36-.972c0-.143.015-.279.043-.406.029-.127.063-.266.102-.416l.366-1.273c.025-.1.054-.237.088-.41.034-.174.051-.302.051-.385 0-.19-.04-.327-.12-.41-.081-.085-.238-.127-.47-.127a1.22 1.22 0 00-.352.054 5.42 5.42 0 00-.31.102l.119-.484c.29-.118.567-.219.832-.303.265-.084.516-.126.752-.126.426 0 .755.106.986.32.23.212.346.482.346.808 0 .118-.017.287-.053.507a3.97 3.97 0 01-.118.535l-.312 1.042a2.85 2.85 0 00-.094.416 2.54 2.54 0 00-.04.357c0 .204.056.364.169.48a.533.533 0 00.395.175 1.6 1.6 0 00.204-.018.95.95 0 00.28-.089c.1-.047.222-.12.367-.223.145-.102.286-.23.422-.384 0-.064.008-.158.024-.282.016-.123.04-.271.072-.443l.71-3.11 1.713-.075.064.075-.709 3.078a3.4 3.4 0 00-.075.698c0 .308.074.535.223.682.148.147.368.22.658.22.487 0 .907-.181 1.26-.545.352-.363.528-.85.528-1.458a1.827 1.827 0 00-.054-.44.766.766 0 00-.22-.253 4.392 4.392 0 01-.3-.263 1.571 1.571 0 01-.274-.379 1.152 1.152 0 01-.118-.545.9.9 0 01.104-.451.932.932 0 01.583-.446 1.23 1.23 0 01.333-.054c.344 0 .608.122.792.366.185.243.277.567.277.972zm11.199-3.508l-.446 1.945h-.408a2.244 2.244 0 00-.363-.938c-.191-.284-.393-.45-.604-.496-.1-.025-.245-.04-.435-.046-.19-.005-.347-.008-.473-.008h-1.053l-.687 2.98h.73c.269 0 .48-.029.632-.088.152-.059.294-.142.427-.25.1-.082.217-.23.351-.443.135-.213.23-.394.288-.545h.408l-.736 3.18h-.408V6.47a2.53 2.53 0 00-.051-.497c-.034-.17-.074-.289-.121-.357a.662.662 0 00-.37-.271 1.888 1.888 0 00-.527-.067h-.73l-.49 2.121a6.01 6.01 0 00-.07.35 1.828 1.828 0 00-.031.268c0 .23.075.373.225.432.15.06.428.09.833.09.515 0 .891-.023 1.128-.068.236-.045.413-.114.531-.207.215-.179.473-.453.774-.822.3-.368.505-.64.612-.816h.392L52.648 9h-7.095l.092-.392c.089-.004.222-.015.4-.035a2.07 2.07 0 00.394-.073.642.642 0 00.32-.214.86.86 0 00.153-.333l1.23-5.328c.018-.076.03-.138.038-.188a.875.875 0 00.01-.113c0-.15-.076-.268-.228-.352-.152-.084-.4-.151-.744-.201l.092-.393h6.703zm6.262 3.508c0 .505-.085 1.017-.255 1.536-.17.52-.409.98-.717 1.38-.365.47-.77.815-1.214 1.037a3.061 3.061 0 01-1.385.333c-.638 0-1.144-.149-1.52-.446-.376-.297-.564-.723-.564-1.278 0-.172.028-.357.086-.553.057-.197.128-.428.214-.693.072-.226.14-.449.202-.669.062-.22.094-.429.094-.626 0-.193-.043-.331-.13-.413-.085-.083-.239-.124-.461-.124a1.22 1.22 0 00-.352.054c-.12.036-.223.07-.309.102l.119-.484c.29-.118.567-.219.832-.303.265-.084.516-.126.752-.126.426 0 .755.106.986.32.23.212.346.477.346.792 0 .232-.031.48-.094.74a9.057 9.057 0 01-.196.704c-.06.187-.124.4-.19.642a2.32 2.32 0 00-.1.578c0 .304.073.548.22.73.147.183.383.274.71.274.486 0 .909-.182 1.267-.545.358-.364.537-.853.537-1.47a1.827 1.827 0 00-.054-.44.824.824 0 00-.23-.263 3.82 3.82 0 01-.29-.258 1.655 1.655 0 01-.275-.367 1.126 1.126 0 01-.118-.551c0-.19.037-.344.11-.462.074-.118.162-.215.266-.29.086-.06.189-.11.309-.145.12-.036.232-.054.336-.054.333 0 .594.12.784.358.19.238.284.564.284.98zm3.175 4.291a3.34 3.34 0 01-1.13-.174 2.174 2.174 0 01-.804-.486 2.021 2.021 0 01-.467-.725 2.572 2.572 0 01-.156-.914c0-.422.079-.832.236-1.23.158-.397.392-.755.704-1.074a3.311 3.311 0 011.117-.741c.451-.19.95-.285 1.493-.285.641 0 1.13.102 1.464.306.335.205.502.51.502.919 0 .39-.145.726-.435 1.007-.29.281-.684.49-1.182.626-.393.118-.73.202-1.007.252-.277.05-.616.097-1.017.14.007.157.028.335.064.532.036.197.09.365.161.504a.98.98 0 00.365.385c.158.094.358.142.602.142.422 0 .781-.082 1.077-.245.295-.162.577-.421.846-.776l.392.328a3.588 3.588 0 01-1.238 1.098 3.273 3.273 0 01-1.587.411zm1.214-4.254c0-.304-.056-.538-.167-.7a.529.529 0 00-.462-.245c-.276 0-.536.225-.781.674-.246.45-.402 1.018-.47 1.705.211-.025.42-.057.628-.096.208-.04.373-.086.494-.14.269-.118.462-.27.58-.456.118-.187.178-.434.178-.742zm9.415 3.255l-.118.484a23.4 23.4 0 01-.849.32 2.24 2.24 0 01-.736.11c-.426 0-.757-.107-.993-.32a1.024 1.024 0 01-.355-.793c0-.085.005-.196.014-.33.009-.134.038-.302.088-.502l.387-1.429c.04-.154.069-.292.089-.416.02-.124.03-.225.03-.303 0-.172-.042-.307-.124-.403-.083-.097-.222-.145-.42-.145-.121 0-.295.047-.52.142-.226.095-.478.271-.758.53L68.928 9H67.15l.763-3.303c.022-.1.05-.231.083-.392.034-.161.051-.296.051-.403 0-.204-.042-.345-.126-.422-.084-.077-.237-.115-.46-.115-.114 0-.23.018-.35.053-.12.036-.224.07-.31.103l.118-.484c.29-.118.568-.22.833-.303.265-.085.516-.127.752-.127.422 0 .738.084.948.25.21.167.348.4.416.701h.038c.35-.319.713-.567 1.087-.744a2.757 2.757 0 011.195-.266c.398 0 .709.11.932.328.224.218.336.483.336.795 0 .082-.006.198-.019.346a2.614 2.614 0 01-.088.476l-.409 1.509a4.344 4.344 0 00-.096.43 2.281 2.281 0 00-.043.365c0 .208.045.349.137.424.091.075.251.113.48.113.108 0 .23-.019.366-.056.136-.038.234-.071.295-.1zm2.347.962c-.43 0-.773-.105-1.031-.315a.984.984 0 01-.387-.797c0-.133.01-.258.027-.376a9.03 9.03 0 01.086-.457l.666-2.857h-.983l.13-.553h1.004l.386-1.628h1.74l-.376 1.628h1.456l-.129.553h-1.45l-.655 2.857a4.535 4.535 0 00-.108.645c0 .204.057.345.17.424.112.079.285.118.518.118.11 0 .264-.021.459-.064a3.7 3.7 0 00.41-.108l-.117.484a5.78 5.78 0 01-.948.327 3.622 3.622 0 01-.868.119z"/></svg><svg width="95" height="20" viewBox="-4 -4 95 20" id="text_review_event_87x12_yellow" xmlns="http://www.w3.org/2000/svg"><g fill="none" fill-rule="evenodd"><path fill="#000" d="M0 4h87v8H0z" opacity=".167" style="mix-blend-mode:multiply"/><path fill="#F6F87A" fill-rule="nonzero" d="M7.72 3.432c0-.418-.131-.73-.395-.935-.263-.205-.645-.308-1.145-.308h-.4l-.814 3.534h.568c.637 0 1.16-.2 1.57-.6.41-.401.616-.965.616-1.691zM4.282 8.676a2.912 2.912 0 00-.038.187.886.886 0 00-.014.135c0 .176.072.305.216.387.145.082.42.144.826.187l-.1.428H.679l.1-.428c.097-.004.243-.018.436-.044.193-.025.337-.053.43-.085a.719.719 0 00.35-.228.888.888 0 00.166-.358l1.342-5.812c.02-.082.033-.15.041-.205a.955.955 0 00.012-.123c0-.164-.083-.292-.25-.384-.165-.092-.436-.165-.81-.22l.099-.427h4.582c.953 0 1.669.134 2.147.404.479.27.718.678.718 1.224a2.13 2.13 0 01-.697 1.62c-.465.436-1.121.755-1.969.959a194.787 194.787 0 001.459 2.596c.094.167.216.358.366.57.15.213.31.35.478.408.082.027.195.05.34.07.144.02.248.031.31.035l-.105.428H7.187c-.367-.84-.68-1.513-.94-2.019a33.994 33.994 0 00-.976-1.749H4.85l-.57 2.444zm9.487 1.517c-.47 0-.88-.063-1.234-.19a2.371 2.371 0 01-.876-.53 2.205 2.205 0 01-.51-.791 2.814 2.814 0 01-.17-.996c0-.461.086-.909.258-1.342.172-.434.428-.824.768-1.172.32-.332.726-.602 1.219-.809a4.16 4.16 0 011.629-.31c.699 0 1.231.111 1.596.334.365.222.548.556.548 1.002 0 .425-.158.792-.475 1.098-.316.307-.746.534-1.289.683-.43.129-.795.22-1.098.275a15.84 15.84 0 01-1.11.153c.007.172.03.365.07.58.039.215.097.398.176.55.093.176.226.316.398.42.172.103.39.155.656.155.461 0 .853-.09 1.175-.267.322-.178.63-.46.923-.847l.428.358c-.352.5-.802.9-1.351 1.198a3.57 3.57 0 01-1.731.448zm1.324-4.64c0-.332-.06-.587-.182-.765a.577.577 0 00-.504-.267c-.3 0-.585.246-.852.736-.268.49-.439 1.11-.513 1.86a9.87 9.87 0 00.686-.105 2.54 2.54 0 00.539-.153c.293-.129.504-.295.632-.498.13-.203.194-.472.194-.808zm9.246-.041c0 .55-.093 1.11-.278 1.676a5.01 5.01 0 01-.783 1.505c-.398.512-.84.889-1.324 1.131a3.34 3.34 0 01-1.512.364c-.695 0-1.248-.163-1.658-.487-.41-.324-.615-.789-.615-1.394 0-.188.031-.389.094-.604.062-.215.14-.467.234-.756.078-.246.151-.489.22-.73.068-.24.102-.467.102-.682 0-.21-.047-.361-.14-.451-.094-.09-.262-.135-.504-.135-.125 0-.253.02-.384.059a5.26 5.26 0 00-.337.111l.129-.527c.316-.13.62-.24.908-.331.29-.092.563-.138.82-.138.465 0 .824.116 1.076.349.252.232.378.52.378.864 0 .254-.035.523-.103.809a9.88 9.88 0 01-.214.767c-.066.203-.135.437-.208.7a2.53 2.53 0 00-.108.63c0 .332.08.598.24.797.16.2.418.299.774.299.53 0 .992-.198 1.382-.595.391-.396.586-.93.586-1.602a1.993 1.993 0 00-.059-.48.899.899 0 00-.251-.288 4.167 4.167 0 01-.317-.281 1.805 1.805 0 01-.299-.402c-.085-.154-.128-.354-.128-.6 0-.207.04-.375.12-.504a1.09 1.09 0 01.29-.316c.094-.067.206-.12.337-.159a1.28 1.28 0 01.366-.058c.363 0 .648.13.855.39.207.26.31.616.31 1.069zm4.441 3.65l-.129.527a26.42 26.42 0 01-.925.35c-.23.08-.498.12-.803.12-.469 0-.833-.115-1.093-.344a1.108 1.108 0 01-.39-.87c0-.136.01-.276.03-.419.02-.142.05-.303.093-.483l.481-1.711c.043-.164.08-.32.108-.466.03-.146.044-.28.044-.401 0-.219-.045-.371-.134-.457-.09-.086-.262-.13-.516-.13-.125 0-.253.02-.384.06a5.26 5.26 0 00-.337.11l.13-.527c.316-.128.618-.239.907-.33.29-.092.563-.138.82-.138.465 0 .824.112 1.076.337.252.224.378.516.378.876 0 .074-.009.205-.027.392-.017.188-.05.36-.096.516l-.48 1.705c-.04.137-.075.293-.106.469a2.489 2.489 0 00-.047.398c0 .227.05.381.152.463.102.082.278.123.528.123.117 0 .25-.02.398-.061.148-.042.256-.078.322-.109zm.123-7.154c0 .297-.112.55-.337.759a1.149 1.149 0 01-.811.313 1.16 1.16 0 01-.815-.313.995.995 0 01-.34-.76c0-.296.114-.55.34-.76a1.15 1.15 0 01.815-.317c.316 0 .587.105.811.316.225.211.337.465.337.762zm3.287 8.185c-.468 0-.88-.063-1.233-.19a2.371 2.371 0 01-.876-.53 2.205 2.205 0 01-.51-.791 2.814 2.814 0 01-.17-.996c0-.461.086-.909.258-1.342.172-.434.428-.824.768-1.172.32-.332.726-.602 1.219-.809a4.16 4.16 0 011.628-.31c.7 0 1.232.111 1.597.334.365.222.548.556.548 1.002 0 .425-.158.792-.475 1.098-.316.307-.746.534-1.289.683-.43.129-.796.22-1.098.275a15.84 15.84 0 01-1.11.153c.007.172.03.365.07.58.039.215.097.398.175.55.094.176.227.316.399.42.172.103.39.155.656.155.461 0 .853-.09 1.175-.267.322-.178.63-.46.923-.847l.427.358c-.351.5-.801.9-1.35 1.198a3.57 3.57 0 01-1.732.448zm1.325-4.64c0-.332-.06-.587-.182-.765a.577.577 0 00-.504-.267c-.3 0-.585.246-.852.736-.268.49-.439 1.11-.513 1.86.23-.027.459-.062.685-.105.227-.043.407-.094.54-.153.292-.129.503-.295.632-.498.13-.203.194-.472.194-.808zm13.101-.041c0 .57-.094 1.135-.281 1.696a4.925 4.925 0 01-.785 1.485 4.237 4.237 0 01-1.242 1.081c-.48.276-1.03.414-1.647.414-.57 0-1.032-.112-1.386-.334a1.68 1.68 0 01-.723-.961c-.418.457-.828.784-1.23.981a2.967 2.967 0 01-1.325.296c-.453 0-.81-.14-1.072-.422-.262-.281-.393-.635-.393-1.06 0-.157.016-.304.047-.443s.068-.29.111-.454l.399-1.389a9.34 9.34 0 00.097-.448c.037-.19.055-.329.055-.419 0-.207-.044-.356-.132-.448-.087-.092-.258-.138-.512-.138-.125 0-.253.02-.384.059a5.26 5.26 0 00-.337.111l.129-.527c.316-.13.619-.24.908-.331.29-.092.563-.138.82-.138.465 0 .824.116 1.076.349.252.232.378.526.378.882 0 .128-.02.313-.059.553a4.4 4.4 0 01-.129.583l-.34 1.137a3.098 3.098 0 00-.102.454 2.81 2.81 0 00-.044.39c0 .222.061.397.184.524s.267.19.431.19c.05 0 .125-.006.223-.02.097-.014.199-.046.304-.097.11-.05.243-.131.402-.243.158-.111.311-.25.46-.419 0-.07.008-.173.026-.307.018-.135.044-.296.08-.484l.773-3.392 1.869-.082.07.082-.773 3.357a3.709 3.709 0 00-.05.296c-.022.15-.032.306-.032.466 0 .336.08.584.243.744.162.16.401.24.717.24.532 0 .99-.198 1.374-.595.385-.396.578-.926.578-1.59a1.993 1.993 0 00-.059-.48.835.835 0 00-.24-.276 4.791 4.791 0 01-.328-.287 1.714 1.714 0 01-.3-.413 1.257 1.257 0 01-.128-.595c0-.195.038-.36.114-.492a1.017 1.017 0 01.636-.487c.137-.039.258-.058.363-.058.375 0 .663.133.864.398.202.266.302.62.302 1.06zm12.217-3.826l-.486 2.12H57.9a2.448 2.448 0 00-.395-1.022c-.21-.31-.429-.491-.66-.542a2.358 2.358 0 00-.474-.05 18.824 18.824 0 00-.516-.008h-1.148l-.75 3.252h.797c.293 0 .522-.033.688-.097a1.72 1.72 0 00.466-.273c.11-.09.238-.25.384-.483.146-.232.251-.43.313-.595h.446l-.803 3.469h-.445V7.24a2.76 2.76 0 00-.056-.542c-.037-.185-.081-.315-.132-.39a.722.722 0 00-.404-.295 2.06 2.06 0 00-.574-.074h-.797l-.533 2.315a6.557 6.557 0 00-.077.38 1.995 1.995 0 00-.035.294c0 .25.082.407.246.471.164.065.467.097.909.097.562 0 .972-.024 1.23-.073.258-.049.451-.124.58-.226.235-.195.516-.494.844-.896.328-.403.55-.7.668-.89h.428L57.344 10h-7.74l.1-.428c.097-.004.242-.016.436-.038.193-.021.337-.048.43-.079a.7.7 0 00.349-.234.939.939 0 00.167-.364l1.342-5.812c.02-.082.033-.15.04-.205a.955.955 0 00.012-.123c0-.164-.083-.292-.249-.384-.166-.092-.436-.165-.811-.22l.1-.427h7.312zm6.832 3.826c0 .55-.093 1.11-.278 1.676a5.01 5.01 0 01-.782 1.505c-.399.512-.84.889-1.325 1.131a3.34 3.34 0 01-1.511.364c-.696 0-1.248-.163-1.659-.487-.41-.324-.615-.789-.615-1.394 0-.188.031-.389.094-.604.062-.215.14-.467.234-.756.078-.246.152-.489.22-.73.068-.24.103-.467.103-.682 0-.21-.047-.361-.141-.451-.094-.09-.262-.135-.504-.135-.125 0-.253.02-.384.059a5.26 5.26 0 00-.337.111l.13-.527c.316-.13.618-.24.907-.331.29-.092.563-.138.82-.138.466 0 .824.116 1.076.349.252.232.378.52.378.864 0 .254-.034.523-.103.809a9.88 9.88 0 01-.214.767c-.066.203-.135.437-.208.7a2.53 2.53 0 00-.108.63c0 .332.08.598.24.797.16.2.418.299.774.299.531 0 .992-.198 1.383-.595.39-.396.585-.93.585-1.602a1.993 1.993 0 00-.059-.48.899.899 0 00-.251-.288 4.167 4.167 0 01-.317-.281 1.805 1.805 0 01-.298-.402c-.086-.154-.13-.354-.13-.6 0-.207.04-.375.12-.504.081-.129.178-.234.29-.316a1.15 1.15 0 01.338-.159 1.28 1.28 0 01.366-.058c.363 0 .648.13.856.39.207.26.31.616.31 1.069zm3.463 4.681c-.469 0-.88-.063-1.233-.19a2.371 2.371 0 01-.876-.53 2.205 2.205 0 01-.51-.791 2.814 2.814 0 01-.17-.996c0-.461.086-.909.258-1.342a3.52 3.52 0 01.767-1.172c.32-.332.727-.602 1.219-.809a4.16 4.16 0 011.629-.31c.7 0 1.231.111 1.597.334.365.222.547.556.547 1.002 0 .425-.158.792-.474 1.098-.317.307-.746.534-1.29.683-.429.129-.795.22-1.098.275a15.84 15.84 0 01-1.11.153c.008.172.031.365.07.58.04.215.098.398.176.55.094.176.226.316.398.42.172.103.391.155.657.155.46 0 .852-.09 1.174-.267.323-.178.63-.46.923-.847l.428.358c-.352.5-.802.9-1.35 1.198a3.57 3.57 0 01-1.732.448zm1.324-4.64c0-.332-.06-.587-.181-.765a.577.577 0 00-.504-.267c-.301 0-.585.246-.853.736-.267.49-.438 1.11-.513 1.86.23-.027.46-.062.686-.105.227-.043.406-.094.539-.153.293-.129.504-.295.633-.498s.193-.472.193-.808zm10.272 3.55l-.13.528c-.386.152-.695.268-.925.348-.23.08-.498.12-.803.12-.465 0-.826-.116-1.084-.348a1.117 1.117 0 01-.386-.864 3.226 3.226 0 01.111-.908l.422-1.56a5.08 5.08 0 00.096-.453 2.14 2.14 0 00.033-.331c0-.188-.045-.334-.135-.44-.09-.105-.242-.158-.457-.158-.133 0-.322.052-.569.155-.246.104-.521.296-.826.578L75.104 10h-1.94l.832-3.604c.024-.109.054-.251.09-.427a2.16 2.16 0 00.057-.44c0-.222-.046-.376-.138-.46-.092-.084-.259-.126-.501-.126-.125 0-.253.02-.384.059a5.26 5.26 0 00-.337.111l.13-.527c.316-.129.618-.24.907-.331.29-.092.563-.138.82-.138.462 0 .806.091 1.035.273.228.181.38.436.454.764h.04a4.882 4.882 0 011.187-.811c.409-.194.843-.29 1.304-.29.434 0 .773.119 1.017.357.244.238.366.527.366.867 0 .09-.007.216-.02.378a2.852 2.852 0 01-.097.519L79.48 7.82a4.665 4.665 0 00-.105.47 2.489 2.489 0 00-.047.398c0 .226.05.38.15.462.1.082.274.123.524.123.117 0 .25-.02.398-.061a2.27 2.27 0 00.323-.108zm2.56 1.05c-.469 0-.844-.115-1.125-.343a1.074 1.074 0 01-.422-.87c0-.145.01-.282.03-.41.02-.13.05-.296.093-.499l.727-3.117h-1.072l.14-.603h1.096l.422-1.776h1.898l-.41 1.776h1.588l-.14.603h-1.583l-.714 3.117a4.947 4.947 0 00-.118.703c0 .223.062.377.185.463.123.086.311.13.565.13.121 0 .288-.024.501-.071a4.16 4.16 0 00.449-.117l-.13.527a6.305 6.305 0 01-1.034.357 3.952 3.952 0 01-.946.13z"/></g></svg><svg width="56" height="15" viewBox="-4 -4 56 15" id="text_soldout_48x7_white" y="57" xmlns="http://www.w3.org/2000/svg"><path d="M2.814 7A4.156 4.156 0 010 5.91l.862-1.059c.597.506 1.222.827 1.98.827.598 0 .958-.243.958-.642v-.02c0-.379-.227-.573-1.337-.865C1.127 3.8.265 3.422.265 2.07v-.02C.265.818 1.232 0 2.587 0c.967 0 1.79.311 2.464.865l-.759 1.128c-.588-.418-1.165-.671-1.724-.671-.56 0-.853.263-.853.593v.019c0 .447.285.593 1.431.895 1.345.36 2.104.856 2.104 2.042v.02C5.25 6.24 4.245 7 2.814 7m8.796-3.5c0-1.16-.827-2.127-1.994-2.127S7.64 2.32 7.64 3.48v.02c0 1.16.828 2.127 1.994 2.127 1.168 0 1.976-.948 1.976-2.108V3.5zM9.616 7C7.584 7 6.125 5.443 6.125 3.52V3.5c0-1.924 1.477-3.5 3.51-3.5 2.032 0 3.49 1.557 3.49 3.48v.02c0 1.924-1.477 3.5-3.51 3.5zm4.259 0V0h1.608v5.6h3.642V7zm10.721-3.5c0-1.24-.808-2.11-2.004-2.11h-1.13v4.22h1.13c1.196 0 2.004-.85 2.004-2.09V3.5zM22.592 7H20V0h2.592c2.09 0 3.533 1.51 3.533 3.48v.02c0 1.97-1.443 3.5-3.533 3.5zm9.893-3.5c0-1.16-.827-2.127-1.994-2.127s-1.976.948-1.976 2.108V3.5c0 1.16.828 2.127 1.994 2.127 1.168 0 1.976-.948 1.976-2.108V3.5zM30.491 7C28.459 7 27 5.443 27 3.52V3.5C27 1.576 28.477 0 30.51 0 32.541 0 34 1.557 34 3.48v.02C34 5.424 32.523 7 30.49 7zm7.426 0c-1.888 0-3.042-1.033-3.042-3.062V0h1.546v3.899c0 1.122.573 1.703 1.517 1.703.943 0 1.516-.561 1.516-1.654V0H41v3.89C41 5.975 39.805 7 37.917 7m7.833-5.58V7h-1.626V1.42h-2.249V0H48v1.42z" fill="#FFF" fill-rule="evenodd"/></svg></svg>