<?xml version="1.0" encoding="utf-8"?><svg width="300" height="222" viewBox="0 0 300 222" xmlns="http://www.w3.org/2000/svg" xmlns:xlink="http://www.w3.org/1999/xlink"><svg width="18" height="14" viewBox="-4 -4 18 14" id="arrow_down_10x6_blue" x="272" y="68" xmlns="http://www.w3.org/2000/svg"><path fill="#6b90dc" fill-rule="evenodd" d="M10 1.006L8.993 0 5 3.988 1.007 0 0 1.006 5 6z"/></svg><svg width="18" height="14" viewBox="-4 -4 18 14" id="arrow_down_10x6_brown" x="272" y="82" xmlns="http://www.w3.org/2000/svg"><path fill="#654f43" fill-rule="evenodd" d="M10 1.006L8.993 0 5 3.988 1.007 0 0 1.006 5 6z"/></svg><svg width="18" height="14" viewBox="-4 -4 18 14" id="arrow_down_10x6_cyan" x="272" y="96" xmlns="http://www.w3.org/2000/svg"><path fill="#20C5B0" fill-rule="evenodd" d="M10 1.006L8.993 0 5 3.988 1.007 0 0 1.006 5 6z"/></svg><svg width="18" height="14" viewBox="-4 -4 18 14" id="arrow_down_10x6_green" x="272" y="110" xmlns="http://www.w3.org/2000/svg"><path fill="#5dcb73" fill-rule="evenodd" d="M10 1.006L8.993 0 5 3.988 1.007 0 0 1.006 5 6z"/></svg><svg width="18" height="14" viewBox="-4 -4 18 14" id="arrow_down_10x6_hotpink" x="240" y="124" xmlns="http://www.w3.org/2000/svg"><path fill="#fc5296" fill-rule="evenodd" d="M10 1.006L8.993 0 5 3.988 1.007 0 0 1.006 5 6z"/></svg><svg width="18" height="14" viewBox="-4 -4 18 14" id="arrow_down_10x6_ivory" x="258" y="124" xmlns="http://www.w3.org/2000/svg"><path fill="#bea78d" fill-rule="evenodd" d="M10 1.006L8.993 0 5 3.988 1.007 0 0 1.006 5 6z"/></svg><svg width="18" height="14" viewBox="-4 -4 18 14" id="arrow_down_10x6_orange" x="276" y="124" xmlns="http://www.w3.org/2000/svg"><path fill="#F79A49" fill-rule="evenodd" d="M10 1.006L8.993 0 5 3.988 1.007 0 0 1.006 5 6z"/></svg><svg width="18" height="14" viewBox="-4 -4 18 14" id="arrow_down_10x6_orangered" x="240" y="138" xmlns="http://www.w3.org/2000/svg"><path fill="#E96061" fill-rule="evenodd" d="M10 1.006L8.993 0 5 3.988 1.007 0 0 1.006 5 6z"/></svg><svg width="18" height="14" viewBox="-4 -4 18 14" id="arrow_down_10x6_pink" x="258" y="138" xmlns="http://www.w3.org/2000/svg"><path fill="#ff9dc5" fill-rule="evenodd" d="M10 1.006L8.993 0 5 3.988 1.007 0 0 1.006 5 6z"/></svg><svg width="18" height="14" viewBox="-4 -4 18 14" id="arrow_down_10x6_red" x="276" y="138" xmlns="http://www.w3.org/2000/svg"><path fill="#ee4a44" fill-rule="evenodd" d="M10 1.006L8.993 0 5 3.988 1.007 0 0 1.006 5 6z"/></svg><svg width="18" height="14" viewBox="-4 -4 18 14" id="arrow_down_10x6_violet" x="240" y="152" xmlns="http://www.w3.org/2000/svg"><path fill="#af7de7" fill-rule="evenodd" d="M10 1.006L8.993 0 5 3.988 1.007 0 0 1.006 5 6z"/></svg><svg width="18" height="14" viewBox="-4 -4 18 14" id="arrow_down_10x6_yellow" x="258" y="152" xmlns="http://www.w3.org/2000/svg"><path fill="#f1be32" fill-rule="evenodd" d="M10 1.006L8.993 0 5 3.988 1.007 0 0 1.006 5 6z"/></svg><svg width="32" height="28" viewBox="-4 -4 32 28" id="arrow_left_24x20_black" x="240" y="68" xmlns="http://www.w3.org/2000/svg"><path fill-rule="evenodd" d="M9.7.251a.905.905 0 011.25 0 .838.838 0 010 1.212L3.023 9.006h20.093c.489 0 .885.52.885.994 0 .473-.396.995-.885.995H3.022l7.929 7.542a.838.838 0 010 1.212.898.898 0 01-.626.251.895.895 0 01-.626-.251L.26 10.606a.838.838 0 010-1.212L9.7.25z"/></svg><svg width="32" height="28" viewBox="-4 -4 32 28" id="arrow_right_24x20_black" x="240" y="96" xmlns="http://www.w3.org/2000/svg"><path fill-rule="evenodd" d="M14.3.251a.905.905 0 00-1.25 0 .838.838 0 000 1.212l7.928 7.552H.885C.396 9.015 0 9.526 0 10c0 .473.396.995.885.995h20.093l-7.929 7.542a.838.838 0 000 1.212.9.9 0 00.626.251.895.895 0 00.626-.251l9.44-9.143a.838.838 0 000-1.212L14.3.25z"/></svg><svg width="14" height="18" viewBox="-4 -4 14 18" id="arrow_right_6x10_blue" x="240" y="166" xmlns="http://www.w3.org/2000/svg"><path fill="#6b90dc" fill-rule="evenodd" d="M1.006 0L0 1.007 3.988 5 0 8.993 1.006 10 6 5z"/></svg><svg width="14" height="18" viewBox="-4 -4 14 18" id="arrow_right_6x10_brown" x="254" y="166" xmlns="http://www.w3.org/2000/svg"><path fill="#654f43" fill-rule="evenodd" d="M1.006 0L0 1.007 3.988 5 0 8.993 1.006 10 6 5z"/></svg><svg width="14" height="18" viewBox="-4 -4 14 18" id="arrow_right_6x10_cyan" x="268" y="166" xmlns="http://www.w3.org/2000/svg"><path fill="#20C5B0" fill-rule="evenodd" d="M1.006 0L0 1.007 3.988 5 0 8.993 1.006 10 6 5z"/></svg><svg width="14" height="18" viewBox="-4 -4 14 18" id="arrow_right_6x10_green" x="282" y="166" xmlns="http://www.w3.org/2000/svg"><path fill="#5dcb73" fill-rule="evenodd" d="M1.006 0L0 1.007 3.988 5 0 8.993 1.006 10 6 5z"/></svg><svg width="14" height="18" viewBox="-4 -4 14 18" id="arrow_right_6x10_hotpink" x="240" y="184" xmlns="http://www.w3.org/2000/svg"><path fill="#fc5296" fill-rule="evenodd" d="M1.006 0L0 1.007 3.988 5 0 8.993 1.006 10 6 5z"/></svg><svg width="14" height="18" viewBox="-4 -4 14 18" id="arrow_right_6x10_ivory" x="254" y="184" xmlns="http://www.w3.org/2000/svg"><path fill="#bea78d" fill-rule="evenodd" d="M1.006 0L0 1.007 3.988 5 0 8.993 1.006 10 6 5z"/></svg><svg width="14" height="18" viewBox="-4 -4 14 18" id="arrow_right_6x10_orange" x="268" y="184" xmlns="http://www.w3.org/2000/svg"><path fill="#F79A49" fill-rule="evenodd" d="M1.006 0L0 1.007 3.988 5 0 8.993 1.006 10 6 5z"/></svg><svg width="14" height="18" viewBox="-4 -4 14 18" id="arrow_right_6x10_orangered" x="282" y="184" xmlns="http://www.w3.org/2000/svg"><path fill="#E96061" fill-rule="evenodd" d="M1.006 0L0 1.007 3.988 5 0 8.993 1.006 10 6 5z"/></svg><svg width="14" height="18" viewBox="-4 -4 14 18" id="arrow_right_6x10_pink" y="204" xmlns="http://www.w3.org/2000/svg"><path fill="#ff9dc5" fill-rule="evenodd" d="M1.006 0L0 1.007 3.988 5 0 8.993 1.006 10 6 5z"/></svg><svg width="14" height="18" viewBox="-4 -4 14 18" id="arrow_right_6x10_red" x="14" y="204" xmlns="http://www.w3.org/2000/svg"><path fill="#ee4a44" fill-rule="evenodd" d="M1.006 0L0 1.007 3.988 5 0 8.993 1.006 10 6 5z"/></svg><svg width="14" height="18" viewBox="-4 -4 14 18" id="arrow_right_6x10_violet" x="28" y="204" xmlns="http://www.w3.org/2000/svg"><path fill="#af7de7" fill-rule="evenodd" d="M1.006 0L0 1.007 3.988 5 0 8.993 1.006 10 6 5z"/></svg><svg width="14" height="18" viewBox="-4 -4 14 18" id="arrow_right_6x10_yellow" x="42" y="204" xmlns="http://www.w3.org/2000/svg"><path fill="#f1be32" fill-rule="evenodd" d="M1.006 0L0 1.007 3.988 5 0 8.993 1.006 10 6 5z"/></svg><svg width="18" height="14" viewBox="-4 -4 18 14" id="arrow_up_10x6_blue" x="276" y="152" xmlns="http://www.w3.org/2000/svg"><path fill="#6b90dc" fill-rule="evenodd" d="M0 4.994L1.007 6 5 2.012 8.993 6 10 4.994 5 0z"/></svg><svg width="18" height="14" viewBox="-4 -4 18 14" id="arrow_up_10x6_brown" x="56" y="204" xmlns="http://www.w3.org/2000/svg"><path fill="#654f43" fill-rule="evenodd" d="M0 4.994L1.007 6 5 2.012 8.993 6 10 4.994 5 0z"/></svg><svg width="18" height="14" viewBox="-4 -4 18 14" id="arrow_up_10x6_cyan" x="74" y="204" xmlns="http://www.w3.org/2000/svg"><path fill="#20C5B0" fill-rule="evenodd" d="M0 4.994L1.007 6 5 2.012 8.993 6 10 4.994 5 0z"/></svg><svg width="18" height="14" viewBox="-4 -4 18 14" id="arrow_up_10x6_green" x="92" y="204" xmlns="http://www.w3.org/2000/svg"><path fill="#5dcb73" fill-rule="evenodd" d="M0 4.994L1.007 6 5 2.012 8.993 6 10 4.994 5 0z"/></svg><svg width="18" height="14" viewBox="-4 -4 18 14" id="arrow_up_10x6_hotpink" x="110" y="204" xmlns="http://www.w3.org/2000/svg"><path fill="#fc5296" fill-rule="evenodd" d="M0 4.994L1.007 6 5 2.012 8.993 6 10 4.994 5 0z"/></svg><svg width="18" height="14" viewBox="-4 -4 18 14" id="arrow_up_10x6_ivory" x="128" y="204" xmlns="http://www.w3.org/2000/svg"><path fill="#bea78d" fill-rule="evenodd" d="M0 4.994L1.007 6 5 2.012 8.993 6 10 4.994 5 0z"/></svg><svg width="18" height="14" viewBox="-4 -4 18 14" id="arrow_up_10x6_orange" x="146" y="204" xmlns="http://www.w3.org/2000/svg"><path fill="#F79A49" fill-rule="evenodd" d="M0 4.994L1.007 6 5 2.012 8.993 6 10 4.994 5 0z"/></svg><svg width="18" height="14" viewBox="-4 -4 18 14" id="arrow_up_10x6_orangered" x="164" y="204" xmlns="http://www.w3.org/2000/svg"><path fill="#E96061" fill-rule="evenodd" d="M0 4.994L1.007 6 5 2.012 8.993 6 10 4.994 5 0z"/></svg><svg width="18" height="14" viewBox="-4 -4 18 14" id="arrow_up_10x6_pink" x="182" y="204" xmlns="http://www.w3.org/2000/svg"><path fill="#ff9dc5" fill-rule="evenodd" d="M0 4.994L1.007 6 5 2.012 8.993 6 10 4.994 5 0z"/></svg><svg width="18" height="14" viewBox="-4 -4 18 14" id="arrow_up_10x6_red" x="200" y="204" xmlns="http://www.w3.org/2000/svg"><path fill="#ee4a44" fill-rule="evenodd" d="M0 4.994L1.007 6 5 2.012 8.993 6 10 4.994 5 0z"/></svg><svg width="18" height="14" viewBox="-4 -4 18 14" id="arrow_up_10x6_violet" x="218" y="204" xmlns="http://www.w3.org/2000/svg"><path fill="#af7de7" fill-rule="evenodd" d="M0 4.994L1.007 6 5 2.012 8.993 6 10 4.994 5 0z"/></svg><svg width="18" height="14" viewBox="-4 -4 18 14" id="arrow_up_10x6_yellow" x="236" y="204" xmlns="http://www.w3.org/2000/svg"><path fill="#f1be32" fill-rule="evenodd" d="M0 4.994L1.007 6 5 2.012 8.993 6 10 4.994 5 0z"/></svg><svg width="60" height="68" viewBox="-4 -4 60 68" id="icon_flag_52x60_blue" xmlns="http://www.w3.org/2000/svg"><path fill="#6B90DC" fill-rule="evenodd" d="M0 0v60l25.975-9.889L52 60V0z"/></svg><svg width="60" height="68" viewBox="-4 -4 60 68" id="icon_flag_52x60_brown" x="60" xmlns="http://www.w3.org/2000/svg"><path fill="#654f43" fill-rule="evenodd" d="M0 0v60l25.975-9.889L52 60V0z"/></svg><svg width="60" height="68" viewBox="-4 -4 60 68" id="icon_flag_52x60_cyan" x="120" xmlns="http://www.w3.org/2000/svg"><path fill="#20C5B0" fill-rule="evenodd" d="M0 0v60l25.975-9.889L52 60V0z"/></svg><svg width="60" height="68" viewBox="-4 -4 60 68" id="icon_flag_52x60_gray" y="68" xmlns="http://www.w3.org/2000/svg"><path fill="#666668" fill-rule="evenodd" d="M0 0v60l25.975-9.889L52 60V0z"/></svg><svg width="60" height="68" viewBox="-4 -4 60 68" id="icon_flag_52x60_green" x="60" y="68" xmlns="http://www.w3.org/2000/svg"><path fill="#5dcb73" fill-rule="evenodd" d="M0 0v60l25.975-9.889L52 60V0z"/></svg><svg width="60" height="68" viewBox="-4 -4 60 68" id="icon_flag_52x60_hotpink" x="120" y="68" xmlns="http://www.w3.org/2000/svg"><path fill="#fc5296" fill-rule="evenodd" d="M0 0v60l25.975-9.889L52 60V0z"/></svg><svg width="60" height="68" viewBox="-4 -4 60 68" id="icon_flag_52x60_ivory" x="180" xmlns="http://www.w3.org/2000/svg"><path fill="#eae1d8" fill-rule="evenodd" d="M0 0v60l25.975-9.889L52 60V0z"/></svg><svg width="60" height="68" viewBox="-4 -4 60 68" id="icon_flag_52x60_orange" x="180" y="68" xmlns="http://www.w3.org/2000/svg"><path fill="#F79A49" fill-rule="evenodd" d="M0 0v60l25.975-9.889L52 60V0z"/></svg><svg width="60" height="68" viewBox="-4 -4 60 68" id="icon_flag_52x60_orangered" y="136" xmlns="http://www.w3.org/2000/svg"><path fill="#E96061" fill-rule="evenodd" d="M0 0v60l25.975-9.889L52 60V0z"/></svg><svg width="60" height="68" viewBox="-4 -4 60 68" id="icon_flag_52x60_pink" x="60" y="136" xmlns="http://www.w3.org/2000/svg"><path fill="#ff9dc5" fill-rule="evenodd" d="M0 0v60l25.975-9.889L52 60V0z"/></svg><svg width="60" height="68" viewBox="-4 -4 60 68" id="icon_flag_52x60_red" x="120" y="136" xmlns="http://www.w3.org/2000/svg"><path fill="#ee4a44" fill-rule="evenodd" d="M0 0v60l25.975-9.889L52 60V0z"/></svg><svg width="60" height="68" viewBox="-4 -4 60 68" id="icon_flag_52x60_violet" x="180" y="136" xmlns="http://www.w3.org/2000/svg"><path fill="#af7de7" fill-rule="evenodd" d="M0 0v60l25.975-9.889L52 60V0z"/></svg><svg width="60" height="68" viewBox="-4 -4 60 68" id="icon_flag_52x60_yellow" x="240" xmlns="http://www.w3.org/2000/svg"><path fill="#fcdf33" fill-rule="evenodd" d="M0 0v60l25.975-9.889L52 60V0z"/></svg></svg>