<?xml version="1.0" encoding="utf-8"?><svg width="115" height="84" viewBox="0 0 115 84" xmlns="http://www.w3.org/2000/svg" xmlns:xlink="http://www.w3.org/1999/xlink"><svg width="18" height="14" viewBox="-4 -4 18 14" id="arrow_down_10x6_gray" x="64" y="38" xmlns="http://www.w3.org/2000/svg"><path fill="#888" fill-rule="evenodd" d="M10 1.006L8.993 0 5 3.988 1.007 0 0 1.006 5 6z"/></svg><svg width="27" height="27" viewBox="-4 -4 27 27" id="arrow_left_19x19_gray" x="88" xmlns="http://www.w3.org/2000/svg"><defs><path id="aba" d="M0 0h19v19H0z"/></defs><g fill="none" fill-rule="evenodd"><g transform="matrix(-1 0 0 1 19 0)"><use fill="#FFF" xlink:href="#aba"/><path stroke="#E0E0E0" d="M.5.5h18v18H.5z"/></g><path fill="#777" d="M11.998 6v.997h-.999v1.01h-.997v1L9.004 9v1.006h.999v1.002h.996v1.003h1V13h-1.997v-.99h-.998L9 11.007H8l-.003-1H7v-1h1.001l-.003-1H9v-1.01h1.002V6z"/></g></svg><svg width="32" height="28" viewBox="-4 -4 32 28" id="arrow_left_24x20_gray" x="24" xmlns="http://www.w3.org/2000/svg"><path fill-rule="evenodd" d="M9.7.251a.905.905 0 011.25 0 .838.838 0 010 1.212L3.023 9.006h20.093c.489 0 .885.52.885.994 0 .473-.396.995-.885.995H3.022l7.929 7.542a.838.838 0 010 1.212.898.898 0 01-.626.251.895.895 0 01-.626-.251L.26 10.606a.838.838 0 010-1.212L9.7.25z" opacity=".2"/></svg><svg width="32" height="28" viewBox="-4 -4 32 28" id="arrow_left_24x20_white" x="56" xmlns="http://www.w3.org/2000/svg"><path fill="#fff" fill-rule="evenodd" d="M9.7.251a.905.905 0 011.25 0 .838.838 0 010 1.212L3.023 9.006h20.093c.489 0 .885.52.885.994 0 .473-.396.995-.885.995H3.022l7.929 7.542a.838.838 0 010 1.212.898.898 0 01-.626.251.895.895 0 01-.626-.251L.26 10.606a.838.838 0 010-1.212L9.7.25z"/></svg><svg width="13" height="16" viewBox="-4 -4 13 16" id="arrow_left_5x8_darkgray" x="27" y="66" xmlns="http://www.w3.org/2000/svg"><path fill="#444" fill-rule="evenodd" d="M4.233 7.888L.143 4.401A.393.393 0 010 4.108a.39.39 0 01.133-.296L4.224.12a.49.49 0 01.643 0c.177.16.177.42 0 .58l-3.76 3.394 3.75 3.197a.383.383 0 01.019.58.478.478 0 01-.33.129.48.48 0 01-.313-.112z"/></svg><svg width="13" height="16" viewBox="-4 -4 13 16" id="arrow_left_5x8_gray" x="40" y="66" xmlns="http://www.w3.org/2000/svg"><path fill="#888" fill-rule="evenodd" d="M4.233 7.888L.143 4.401A.393.393 0 010 4.108a.39.39 0 01.133-.296L4.224.12a.49.49 0 01.643 0c.177.16.177.42 0 .58l-3.76 3.394 3.75 3.197a.383.383 0 01.019.58.478.478 0 01-.33.129.48.48 0 01-.313-.112z"/></svg><svg width="24" height="38" viewBox="-4 -4 24 38" id="arrow_right_16x30_white" xmlns="http://www.w3.org/2000/svg"><path fill="none" stroke="#FFF" stroke-linecap="round" stroke-linejoin="round" stroke-width="2" d="M1 29l14-14.002L1 1"/></svg><svg width="27" height="27" viewBox="-4 -4 27 27" id="arrow_right_19x19_gray" x="88" y="27" xmlns="http://www.w3.org/2000/svg"><defs><path id="aha" d="M0 0h19v19H0z"/></defs><g fill="none" fill-rule="evenodd"><use fill="#FFF" xlink:href="#aha"/><path stroke="#E0E0E0" d="M.5.5h18v18H.5z"/><path fill="#777" d="M7.002 6v.997H8v1.01h.997v1L9.994 9v1.006h-.998v1.002H8v1.003H7V13h1.998v-.99h.997L10 11.007h.998l.004-1h.997v-1h-1l.003-1H10v-1.01H8.998V6z"/></g></svg><svg width="32" height="28" viewBox="-4 -4 32 28" id="arrow_right_24x20_gray" y="38" xmlns="http://www.w3.org/2000/svg"><path fill-rule="evenodd" d="M14.3.251a.905.905 0 00-1.25 0 .838.838 0 000 1.212l7.928 7.552H.885C.396 9.015 0 9.526 0 10c0 .473.396.995.885.995h20.093l-7.929 7.542a.838.838 0 000 1.212.9.9 0 00.626.251.895.895 0 00.626-.251l9.44-9.143a.838.838 0 000-1.212L14.3.25z" opacity=".2"/></svg><svg width="32" height="28" viewBox="-4 -4 32 28" id="arrow_right_24x20_white" x="32" y="38" xmlns="http://www.w3.org/2000/svg"><path fill="#FFF" fill-rule="evenodd" d="M14.3.251a.905.905 0 00-1.25 0 .838.838 0 000 1.212l7.928 7.552H.885C.396 9.015 0 9.526 0 10c0 .473.396.995.885.995h20.093l-7.929 7.542a.838.838 0 000 1.212.9.9 0 00.626.251.895.895 0 00.626-.251l9.44-9.143a.838.838 0 000-1.212L14.3.25z"/></svg><svg width="13" height="16" viewBox="-4 -4 13 16" id="arrow_right_5x8_darkgray" x="53" y="66" xmlns="http://www.w3.org/2000/svg"><path fill="#444" fill-rule="evenodd" d="M.455 8a.48.48 0 00.312-.112l4.09-3.487A.393.393 0 005 4.108a.39.39 0 00-.133-.296L.776.12a.49.49 0 00-.643 0 .383.383 0 000 .58l3.76 3.394-3.75 3.197a.382.382 0 00-.019.58c.09.086.21.129.33.129"/></svg><svg width="13" height="16" viewBox="-4 -4 13 16" id="arrow_right_5x8_gray" x="66" y="66" xmlns="http://www.w3.org/2000/svg"><path fill="#888" fill-rule="evenodd" d="M.455 8a.48.48 0 00.312-.112l4.09-3.487A.393.393 0 005 4.108a.39.39 0 00-.133-.296L.776.12a.49.49 0 00-.643 0 .383.383 0 000 .58l3.76 3.394-3.75 3.197a.382.382 0 00-.019.58c.09.086.21.129.33.129"/></svg><svg width="13" height="17" viewBox="-4 -4 13 17" id="arrow_right_5x9_lightgray" x="14" y="66" xmlns="http://www.w3.org/2000/svg"><path fill="#DDD" fill-rule="evenodd" d="M0 0h1v1H0V0zm0 8h1v1H0V8zm1-7h1v1H1V1zm0 6h1v1H1V7zm1-5h1v1H2V2zm0 4h1v1H2V6zm1-3h1v1H3V3zm0 2h1v1H3V5zm1-1h1v1H4V4z"/></svg><svg width="14" height="18" viewBox="-4 -4 14 18" id="arrow_right_6x10_gray" y="66" xmlns="http://www.w3.org/2000/svg"><path fill="#d7d7d7" fill-rule="evenodd" d="M1.006 0L0 1.007 3.988 5 0 8.993 1.006 10 6 5z"/></svg><svg width="18" height="14" viewBox="-4 -4 18 14" id="arrow_up_10x6_gray" x="64" y="52" xmlns="http://www.w3.org/2000/svg"><path fill="#888" fill-rule="evenodd" d="M0 4.994L1.007 6 5 2.012 8.993 6 10 4.994 5 0z"/></svg></svg>