<?xml version="1.0" encoding="utf-8"?><svg width="132" height="110" viewBox="0 0 132 110" xmlns="http://www.w3.org/2000/svg" xmlns:xlink="http://www.w3.org/1999/xlink"><svg width="25" height="23" viewBox="-4 -4 25 23" id="icon_bell_17x15_cube_graywhite" y="69" xmlns="http://www.w3.org/2000/svg"><g fill="none" fill-rule="evenodd" stroke="#9FA0A6"><path d="M2.554 1.879A6.597 6.597 0 001 6.129m13.017-4.25a6.6 6.6 0 011.554 4.25m-4.844 6.407c-.197.908-1.25 1.6-2.522 1.6-1.26 0-2.308-.682-2.517-1.579"/><path d="M15.216 12.547l-1.422-2.049V6.401c0-3-2.409-5.464-5.532-5.464a5.428 5.428 0 00-5.485 5.464v4.097l-1.422 2.05h13.86z"/></g></svg><svg width="25" height="23" viewBox="-4 -4 25 23" id="icon_bell_17x15_cube_sandbeige" x="25" y="69" xmlns="http://www.w3.org/2000/svg"><g fill="none" fill-rule="evenodd" stroke="#63463B"><path d="M2.554 1.879A6.597 6.597 0 001 6.129m13.017-4.25a6.6 6.6 0 011.554 4.25m-4.844 6.407c-.197.908-1.25 1.6-2.522 1.6-1.26 0-2.308-.682-2.517-1.579"/><path d="M15.216 12.547l-1.422-2.049V6.401c0-3-2.409-5.464-5.532-5.464a5.428 5.428 0 00-5.485 5.464v4.097l-1.422 2.05h13.86z"/></g></svg><svg width="25" height="23" viewBox="-4 -4 25 23" id="icon_bell_17x15_simple_blackgray" x="50" y="69" xmlns="http://www.w3.org/2000/svg"><g fill="none" fill-rule="evenodd" stroke="#8F8F8F"><path d="M2.554 1.879A6.597 6.597 0 001 6.129m13.017-4.25a6.6 6.6 0 011.554 4.25m-4.844 6.407c-.197.908-1.25 1.6-2.522 1.6-1.26 0-2.308-.682-2.517-1.579"/><path d="M15.216 12.547l-1.422-2.049V6.401c0-3-2.409-5.464-5.532-5.464a5.428 5.428 0 00-5.485 5.464v4.097l-1.422 2.05h13.86z"/></g></svg><svg width="25" height="23" viewBox="-4 -4 25 23" id="icon_bell_17x15_simple_blue" x="75" y="69" xmlns="http://www.w3.org/2000/svg"><g fill="none" fill-rule="evenodd" stroke="#7894DA"><path d="M2.554 1.879A6.597 6.597 0 001 6.129m13.017-4.25a6.6 6.6 0 011.554 4.25m-4.844 6.407c-.197.908-1.25 1.6-2.522 1.6-1.26 0-2.308-.682-2.517-1.579"/><path d="M15.216 12.547l-1.422-2.049V6.401c0-3-2.409-5.464-5.532-5.464a5.428 5.428 0 00-5.485 5.464v4.097l-1.422 2.05h13.86z"/></g></svg><svg width="25" height="23" viewBox="-4 -4 25 23" id="icon_bell_17x15_simple_sandivory" x="107" xmlns="http://www.w3.org/2000/svg"><g fill="none" fill-rule="evenodd" stroke="#9F948C"><path d="M2.554 1.879A6.597 6.597 0 001 6.129m13.017-4.25a6.6 6.6 0 011.554 4.25m-4.844 6.407c-.197.908-1.25 1.6-2.522 1.6-1.26 0-2.308-.682-2.517-1.579"/><path d="M15.216 12.547l-1.422-2.049V6.401c0-3-2.409-5.464-5.532-5.464a5.428 5.428 0 00-5.485 5.464v4.097l-1.422 2.05h13.86z"/></g></svg><svg width="25" height="23" viewBox="-4 -4 25 23" id="icon_bell_17x15_simple_yellowgray" x="107" y="23" xmlns="http://www.w3.org/2000/svg"><g fill="none" fill-rule="evenodd" stroke="#8C7C00"><path d="M2.554 1.879A6.597 6.597 0 001 6.129m13.017-4.25a6.6 6.6 0 011.554 4.25m-4.844 6.407c-.197.908-1.25 1.6-2.522 1.6-1.26 0-2.308-.682-2.517-1.579"/><path d="M15.216 12.547l-1.422-2.049V6.401c0-3-2.409-5.464-5.532-5.464a5.428 5.428 0 00-5.485 5.464v4.097l-1.422 2.05h13.86z"/></g></svg><svg width="26" height="23" viewBox="-4 -4 26 23" id="icon_bell_plus_18x15_cube_graywhite" y="46" xmlns="http://www.w3.org/2000/svg"><g fill="none" fill-rule="evenodd"><path fill="#9FA0A6" d="M7.527 14a2.263 2.263 0 01-1.88-1h3.76c-.404.606-1.104 1-1.88 1zm4.629-2H1.664l.71-1.382V6c0-2.757 2.308-5 5.144-5 2.484 0 4.562 1.72 5.039 4h1.04c-.492-2.833-3.027-5-6.08-5-3.402 0-6.17 2.692-6.17 6v4.382L0 13h4.49c.489 1.186 1.685 2 3.036 2 1.35 0 2.548-.814 3.036-2h1.593v-1z"/><path fill="#9FA0A6" d="M17.813 9h-2.571V6.5h-1.543V9h-2.572v1.5H13.7V13h1.543v-2.5h2.571z"/></g></svg><svg width="26" height="23" viewBox="-4 -4 26 23" id="icon_bell_plus_18x15_cube_sandbeige" x="26" y="46" xmlns="http://www.w3.org/2000/svg"><g fill="none" fill-rule="evenodd"><path fill="#63463B" d="M7.527 14a2.263 2.263 0 01-1.88-1h3.76c-.404.606-1.104 1-1.88 1zm4.629-2H1.664l.71-1.382V6c0-2.757 2.308-5 5.144-5 2.484 0 4.562 1.72 5.039 4h1.04c-.492-2.833-3.027-5-6.08-5-3.402 0-6.17 2.692-6.17 6v4.382L0 13h4.49c.489 1.186 1.685 2 3.036 2 1.35 0 2.548-.814 3.036-2h1.593v-1z"/><path fill="#63463B" d="M17.813 9h-2.571V6.5h-1.543V9h-2.572v1.5H13.7V13h1.543v-2.5h2.571z"/></g></svg><svg width="26" height="23" viewBox="-4 -4 26 23" id="icon_bell_plus_18x15_simple_blackgray" x="52" y="46" xmlns="http://www.w3.org/2000/svg"><g fill="none" fill-rule="evenodd"><path fill="#8F8F8F" d="M7.527 14a2.263 2.263 0 01-1.88-1h3.76c-.404.606-1.104 1-1.88 1zm4.629-2H1.664l.71-1.382V6c0-2.757 2.308-5 5.144-5 2.484 0 4.562 1.72 5.039 4h1.04c-.492-2.833-3.027-5-6.08-5-3.402 0-6.17 2.692-6.17 6v4.382L0 13h4.49c.489 1.186 1.685 2 3.036 2 1.35 0 2.548-.814 3.036-2h1.593v-1z"/><path fill="#8F8F8F" d="M17.813 9h-2.571V6.5h-1.543V9h-2.572v1.5H13.7V13h1.543v-2.5h2.571z"/></g></svg><svg width="26" height="23" viewBox="-4 -4 26 23" id="icon_bell_plus_18x15_simple_blue" x="81" xmlns="http://www.w3.org/2000/svg"><g fill="none" fill-rule="evenodd"><path fill="#7894DA" d="M7.527 14a2.263 2.263 0 01-1.88-1h3.76c-.404.606-1.104 1-1.88 1zm4.629-2H1.664l.71-1.382V6c0-2.757 2.308-5 5.144-5 2.484 0 4.562 1.72 5.039 4h1.04c-.492-2.833-3.027-5-6.08-5-3.402 0-6.17 2.692-6.17 6v4.382L0 13h4.49c.489 1.186 1.685 2 3.036 2 1.35 0 2.548-.814 3.036-2h1.593v-1z"/><path fill="#7894DA" d="M17.813 9h-2.571V6.5h-1.543V9h-2.572v1.5H13.7V13h1.543v-2.5h2.571z"/></g></svg><svg width="26" height="23" viewBox="-4 -4 26 23" id="icon_bell_plus_18x15_simple_sandivory" x="81" y="23" xmlns="http://www.w3.org/2000/svg"><g fill="none" fill-rule="evenodd"><path fill="#9F948C" d="M7.527 14a2.263 2.263 0 01-1.88-1h3.76c-.404.606-1.104 1-1.88 1zm4.629-2H1.664l.71-1.382V6c0-2.757 2.308-5 5.144-5 2.484 0 4.562 1.72 5.039 4h1.04c-.492-2.833-3.027-5-6.08-5-3.402 0-6.17 2.692-6.17 6v4.382L0 13h4.49c.489 1.186 1.685 2 3.036 2 1.35 0 2.548-.814 3.036-2h1.593v-1z"/><path fill="#9F948C" d="M17.813 9h-2.571V6.5h-1.543V9h-2.572v1.5H13.7V13h1.543v-2.5h2.571z"/></g></svg><svg width="26" height="23" viewBox="-4 -4 26 23" id="icon_bell_plus_18x15_simple_yellowgray" x="81" y="46" xmlns="http://www.w3.org/2000/svg"><g fill="none" fill-rule="evenodd"><path fill="#8C7C00" d="M7.527 14a2.263 2.263 0 01-1.88-1h3.76c-.404.606-1.104 1-1.88 1zm4.629-2H1.664l.71-1.382V6c0-2.757 2.308-5 5.144-5 2.484 0 4.562 1.72 5.039 4h1.04c-.492-2.833-3.027-5-6.08-5-3.402 0-6.17 2.692-6.17 6v4.382L0 13h4.49c.489 1.186 1.685 2 3.036 2 1.35 0 2.548-.814 3.036-2h1.593v-1z"/><path fill="#8C7C00" d="M17.813 9h-2.571V6.5h-1.543V9h-2.572v1.5H13.7V13h1.543v-2.5h2.571z"/></g></svg><svg width="21" height="18" viewBox="-4 -4 21 18" id="icon_check_13x10_cube_graywhite" x="107" y="46" xmlns="http://www.w3.org/2000/svg"><path fill="none" stroke="#9FA0A6" stroke-width="1.5" d="M1 5.037L4.644 9 12 1"/></svg><svg width="21" height="18" viewBox="-4 -4 21 18" id="icon_check_13x10_cube_sandbeige" x="107" y="64" xmlns="http://www.w3.org/2000/svg"><path fill="none" stroke="#63463B" stroke-width="1.5" d="M1 5.037L4.644 9 12 1"/></svg><svg width="21" height="18" viewBox="-4 -4 21 18" id="icon_check_13x10_simple_blackgray" y="92" xmlns="http://www.w3.org/2000/svg"><path fill="none" stroke="#8F8F8F" stroke-width="1.5" d="M1 5.037L4.644 9 12 1"/></svg><svg width="21" height="18" viewBox="-4 -4 21 18" id="icon_check_13x10_simple_blue" x="21" y="92" xmlns="http://www.w3.org/2000/svg"><path fill="none" stroke="#7894DA" stroke-width="1.5" d="M1 5.037L4.644 9 12 1"/></svg><svg width="21" height="18" viewBox="-4 -4 21 18" id="icon_check_13x10_simple_sandivory" x="42" y="92" xmlns="http://www.w3.org/2000/svg"><path fill="none" stroke="#9F948C" stroke-width="1.5" d="M1 5.037L4.644 9 12 1"/></svg><svg width="21" height="18" viewBox="-4 -4 21 18" id="icon_check_13x10_simple_yellowgray" x="63" y="92" xmlns="http://www.w3.org/2000/svg"><path fill="none" stroke="#8C7C00" stroke-width="1.5" d="M1 5.037L4.644 9 12 1"/></svg><svg width="27" height="23" viewBox="-4 -4 27 23" id="icon_heart_plus_19x15_cube_graywhite" xmlns="http://www.w3.org/2000/svg"><g fill="none" fill-rule="evenodd"><path fill="#9FA0A6" d="M5.356 5.981c0 .635.259 1.232.729 1.681.967.923 2.542.923 3.514-.003l2.87-2.78-.781-.758-2.867 2.777c-.54.515-1.42.516-1.96 0a1.263 1.263 0 01-.4-.917c0-.345.143-.67.404-.92l2.947-2.867a3.238 3.238 0 012.286-.932 3.23 3.23 0 012.285.933A3.172 3.172 0 0115 5.893h1.201a4.235 4.235 0 00-1.03-4.45A4.347 4.347 0 0012.098.19a4.35 4.35 0 00-3.072 1.25l-2.94 2.862a2.307 2.307 0 00-.73 1.68"/><path fill="#9FA0A6" d="M10.054 12.222v-.602l-1.68 1.68L2.07 6.994a3.375 3.375 0 010-4.717 3.203 3.203 0 014.591 0l.793-.78a4.308 4.308 0 00-3.09-1.3A4.298 4.298 0 001.28 1.496c-1.706 1.729-1.706 4.545.002 6.28l7.092 7.097 1.68-1.682v-.969zM19 10.385h-2.842V7.5h-1.705v2.885h-2.842v1.73h2.842V15h1.705v-2.885H19z"/></g></svg><svg width="27" height="23" viewBox="-4 -4 27 23" id="icon_heart_plus_19x15_cube_sandbeige" x="27" xmlns="http://www.w3.org/2000/svg"><g fill="none" fill-rule="evenodd"><path fill="#63463B" d="M5.356 5.981c0 .635.259 1.232.729 1.681.967.923 2.542.923 3.514-.003l2.87-2.78-.781-.758-2.867 2.777c-.54.515-1.42.516-1.96 0a1.263 1.263 0 01-.4-.917c0-.345.143-.67.404-.92l2.947-2.867a3.238 3.238 0 012.286-.932 3.23 3.23 0 012.285.933A3.172 3.172 0 0115 5.893h1.201a4.235 4.235 0 00-1.03-4.45A4.347 4.347 0 0012.098.19a4.35 4.35 0 00-3.072 1.25l-2.94 2.862a2.307 2.307 0 00-.73 1.68"/><path fill="#63463B" d="M10.054 12.222v-.602l-1.68 1.68L2.07 6.994a3.375 3.375 0 010-4.717 3.203 3.203 0 014.591 0l.793-.78a4.308 4.308 0 00-3.09-1.3A4.298 4.298 0 001.28 1.496c-1.706 1.729-1.706 4.545.002 6.28l7.092 7.097 1.68-1.682v-.969zM19 10.385h-2.842V7.5h-1.705v2.885h-2.842v1.73h2.842V15h1.705v-2.885H19z"/></g></svg><svg width="27" height="23" viewBox="-4 -4 27 23" id="icon_heart_plus_19x15_simple_blackgray" y="23" xmlns="http://www.w3.org/2000/svg"><g fill="none" fill-rule="evenodd"><path fill="#8F8F8F" d="M5.356 5.981c0 .635.259 1.232.729 1.681.967.923 2.542.923 3.514-.003l2.87-2.78-.781-.758-2.867 2.777c-.54.515-1.42.516-1.96 0a1.263 1.263 0 01-.4-.917c0-.345.143-.67.404-.92l2.947-2.867a3.238 3.238 0 012.286-.932 3.23 3.23 0 012.285.933A3.172 3.172 0 0115 5.893h1.201a4.235 4.235 0 00-1.03-4.45A4.347 4.347 0 0012.098.19a4.35 4.35 0 00-3.072 1.25l-2.94 2.862a2.307 2.307 0 00-.73 1.68"/><path fill="#8F8F8F" d="M10.054 12.222v-.602l-1.68 1.68L2.07 6.994a3.375 3.375 0 010-4.717 3.203 3.203 0 014.591 0l.793-.78a4.308 4.308 0 00-3.09-1.3A4.298 4.298 0 001.28 1.496c-1.706 1.729-1.706 4.545.002 6.28l7.092 7.097 1.68-1.682v-.969zM19 10.385h-2.842V7.5h-1.705v2.885h-2.842v1.73h2.842V15h1.705v-2.885H19z"/></g></svg><svg width="27" height="23" viewBox="-4 -4 27 23" id="icon_heart_plus_19x15_simple_blue" x="27" y="23" xmlns="http://www.w3.org/2000/svg"><g fill="none" fill-rule="evenodd"><path fill="#7894DA" d="M5.356 5.981c0 .635.259 1.232.729 1.681.967.923 2.542.923 3.514-.003l2.87-2.78-.781-.758-2.867 2.777c-.54.515-1.42.516-1.96 0a1.263 1.263 0 01-.4-.917c0-.345.143-.67.404-.92l2.947-2.867a3.238 3.238 0 012.286-.932 3.23 3.23 0 012.285.933A3.172 3.172 0 0115 5.893h1.201a4.235 4.235 0 00-1.03-4.45A4.347 4.347 0 0012.098.19a4.35 4.35 0 00-3.072 1.25l-2.94 2.862a2.307 2.307 0 00-.73 1.68"/><path fill="#7894DA" d="M10.054 12.222v-.602l-1.68 1.68L2.07 6.994a3.375 3.375 0 010-4.717 3.203 3.203 0 014.591 0l.793-.78a4.308 4.308 0 00-3.09-1.3A4.298 4.298 0 001.28 1.496c-1.706 1.729-1.706 4.545.002 6.28l7.092 7.097 1.68-1.682v-.969zM19 10.385h-2.842V7.5h-1.705v2.885h-2.842v1.73h2.842V15h1.705v-2.885H19z"/></g></svg><svg width="27" height="23" viewBox="-4 -4 27 23" id="icon_heart_plus_19x15_simple_sandivory" x="54" xmlns="http://www.w3.org/2000/svg"><g fill="none" fill-rule="evenodd"><path fill="#9F948C" d="M5.356 5.981c0 .635.259 1.232.729 1.681.967.923 2.542.923 3.514-.003l2.87-2.78-.781-.758-2.867 2.777c-.54.515-1.42.516-1.96 0a1.263 1.263 0 01-.4-.917c0-.345.143-.67.404-.92l2.947-2.867a3.238 3.238 0 012.286-.932 3.23 3.23 0 012.285.933A3.172 3.172 0 0115 5.893h1.201a4.235 4.235 0 00-1.03-4.45A4.347 4.347 0 0012.098.19a4.35 4.35 0 00-3.072 1.25l-2.94 2.862a2.307 2.307 0 00-.73 1.68"/><path fill="#9F948C" d="M10.054 12.222v-.602l-1.68 1.68L2.07 6.994a3.375 3.375 0 010-4.717 3.203 3.203 0 014.591 0l.793-.78a4.308 4.308 0 00-3.09-1.3A4.298 4.298 0 001.28 1.496c-1.706 1.729-1.706 4.545.002 6.28l7.092 7.097 1.68-1.682v-.969zM19 10.385h-2.842V7.5h-1.705v2.885h-2.842v1.73h2.842V15h1.705v-2.885H19z"/></g></svg><svg width="27" height="23" viewBox="-4 -4 27 23" id="icon_heart_plus_19x15_simple_yellowgray" x="54" y="23" xmlns="http://www.w3.org/2000/svg"><g fill="none" fill-rule="evenodd"><path fill="#8C7C00" d="M5.356 5.981c0 .635.259 1.232.729 1.681.967.923 2.542.923 3.514-.003l2.87-2.78-.781-.758-2.867 2.777c-.54.515-1.42.516-1.96 0a1.263 1.263 0 01-.4-.917c0-.345.143-.67.404-.92l2.947-2.867a3.238 3.238 0 012.286-.932 3.23 3.23 0 012.285.933A3.172 3.172 0 0115 5.893h1.201a4.235 4.235 0 00-1.03-4.45A4.347 4.347 0 0012.098.19a4.35 4.35 0 00-3.072 1.25l-2.94 2.862a2.307 2.307 0 00-.73 1.68"/><path fill="#8C7C00" d="M10.054 12.222v-.602l-1.68 1.68L2.07 6.994a3.375 3.375 0 010-4.717 3.203 3.203 0 014.591 0l.793-.78a4.308 4.308 0 00-3.09-1.3A4.298 4.298 0 001.28 1.496c-1.706 1.729-1.706 4.545.002 6.28l7.092 7.097 1.68-1.682v-.969zM19 10.385h-2.842V7.5h-1.705v2.885h-2.842v1.73h2.842V15h1.705v-2.885H19z"/></g></svg></svg>